<?xml version="1.0" encoding="utf-8"?>
<!-- Generator: Adobe Illustrator 26.5.1, SVG Export Plug-In . SVG Version: 6.00 Build 0)  -->
<svg version="1.1" id="レイヤー_1" xmlns="http://www.w3.org/2000/svg" xmlns:xlink="http://www.w3.org/1999/xlink" x="0px"
	 y="0px" viewBox="0 0 500 500" style="enable-background:new 0 0 500 500;" xml:space="preserve">
<style type="text/css">
	.st0{fill:#FFEECC;}
	.st1{fill:#806020;}
</style>
<g>
	<path class="st0" d="M417.9,164.8v328.3H83.4V166.1c-15.8-15.5-24.7-33.4-24.7-52.5C58.6,54.6,144.3,6.9,250,6.9
		s191.4,47.8,191.4,106.7C441.4,132.1,432.8,149.6,417.9,164.8z"/>
	<path class="st1" d="M250,24.6c48.1,0,93.2,10.3,126.7,29c15.2,8.5,27.5,18.6,35.5,29.2c7.6,10,11.5,20.4,11.5,30.8
		c0,13.4-6.2,26.5-18.5,38.9c-3.3,3.3-5.1,7.8-5.1,12.4v310.6H101V166.1c0-4.8-1.9-9.2-5.3-12.5c-12.9-12.7-19.5-26.2-19.5-39.9
		c0-10.5,3.9-20.8,11.5-30.8c8.1-10.6,20.3-20.7,35.5-29.2C156.8,34.9,201.9,24.6,250,24.6 M250,6.9C144.3,6.9,58.6,54.6,58.6,113.5
		c0,19.1,8.9,37,24.7,52.5v327.1h334.5V164.8c15-15.3,23.5-32.7,23.5-51.4C441.4,54.6,355.7,6.9,250,6.9L250,6.9z"/>
</g>
<g>
	<g>
		<path d="M125.8,205.9c-0.1,10-2.3,18.4-6.6,25.5c-3.7,6.1-9.6,12.2-17.4,18.6c0,0,0,0-0.1,0.1c-0.3,0.1-0.4,0-0.5-0.3
			c0-0.1,0-0.1,0.1-0.2c6.5-6.7,13-16.4,15.8-25.4c2.2-7.3,2.8-15.9,1.6-25.7c-0.2-1.4-0.5-3-0.9-4.7c4.5-0.8,7.2-1.2,8.1-1.2
			s1.3,0.2,1.4,0.8c0,0.3-0.1,0.6-0.4,0.9c-0.2,0.3-1.4,0.8-1.6,1.3c-0.5,1.1,0.3,4.2,0.3,5.4c1.8,7.3,5,13.2,9.5,17.9
			c5.6,5.8,12.9,9.3,21.8,10.7c0.2,0,0.3,0.1,0.3,0.3s-0.1,0.3-0.2,0.4c-1.1,0.5-2,1.2-2.5,2c-0.5,0.7-0.9,1.7-1.2,2.9
			c-0.2,0.9-0.6,1.4-1.1,1.5s-1.7-0.2-3.4-1c-7.8-3.9-13.6-8.8-17.4-15C129.1,216.5,127.2,211.7,125.8,205.9z"/>
		<path d="M174.3,188.8c-3.5,7-8,12.6-13.7,16.9c0,0-0.1,0-0.1,0.1c-0.3,0.1-0.4-0.1-0.5-0.3c0-0.1,0-0.1,0-0.2
			c3.9-5.1,7-11.1,9.1-17.8c0.9-2.7,1.5-5.1,1.7-7.3c3.4,0.3,5.7,0.6,6.9,0.9c1,0.3,1.6,0.6,1.6,1c0.1,0.8-0.9,1.4-2.9,1.8
			c-0.5,1.2-1,2.4-1.5,3.6c10.4-1.6,15.7-2.2,26.2-3.3c2.4-2.8,3.9-4.3,4.4-4.3c0.4,0,2,0.7,4.7,2.3c1.4,0.9,2.1,1.5,2.1,1.8
			c0,0.4-0.3,0.6-0.8,0.6C199.1,185.5,186.6,186.9,174.3,188.8z M185.3,219.6c-5.2,5.9-12.2,10.6-21,14.3c-0.3,0.1-0.5,0-0.5-0.5
			c0-0.1,0-0.1,0.1-0.2c7.3-4.9,13.2-10.4,17.7-16.7c-2.7-1.9-6.4-3.9-11.3-6l-0.1-0.1c0-0.3,0.1-0.5,0.5-0.5h0.1
			c4.6,0.8,8.8,2,12.8,3.5c0.9-1.4,1.8-3.1,2.7-4.9c0.7-1.4,1.4-3.1,2.1-5.1c3.1,0.7,5.2,1.2,6.2,1.7c0.9,0.4,1.4,0.8,1.4,1.3
			c0,0.8-0.9,1.3-2.8,1.5c-1.5,2.8-3.1,5.4-4.8,7.7c4.8,2.6,7.2,5.2,7.4,8c0.1,1-0.2,1.8-0.8,2.5c-0.5,0.6-1.1,0.9-1.9,1
			c-0.8,0.1-1.5-0.1-2.1-0.5c-0.5-0.4-1.1-1-1.8-2C188.2,222.7,186.9,221.1,185.3,219.6z M219.5,225.4c0,0.8-0.3,1.4-0.9,1.9
			c-0.5,0.4-1.1,0.6-1.9,0.7c-1.3,0.1-2.8-0.3-4.3-1.1c-2.5-1.4-4.8-3.7-6.8-7c-1.5-2.6-2.7-5.5-3.4-8.6c-0.7-2.8-1.2-6.5-1.4-10.9
			c-10,1-20,2.3-29.8,3.9c-1.9,0.4-3.3,0.7-4.2,1.1c-0.3-0.8-0.5-1.2-0.9-2c1.5,0,3.1-0.2,4.8-0.4c9.7-1.6,19.6-2.9,29.4-3.9
			c1.7-2.1,2.9-3.2,3.3-3.3c0.5,0,1.7,0.6,3.7,1.8c1,0.7,1.5,1.2,1.5,1.6c0,0.6-0.6,1.3-2,2.1c0.4,5,1,8.8,2,11.6
			c0.8,2.1,2,4.1,3.6,6c0.7,0.8,1.3,1.2,1.7,1.2c0.6,0,1.8-2.7,3.6-7.9c0-0.1,0.1-0.2,0.2-0.2c0.1,0,0.2,0,0.2,0
			c0.2,0.1,0.3,0.2,0.3,0.3c-0.6,5.4-0.8,8.4-0.8,9s0.4,1.3,1.2,2C219.2,224,219.5,224.7,219.5,225.4z M206.4,191.6
			c0,0.4-0.3,0.6-0.8,0.6c-9.5,0.8-19.1,2-28.6,3.4c-1,0.2-2.3,0.5-3.7,0.9c-0.3-0.8-0.5-1.2-0.9-2c1.6,0,3.1,0,4.5-0.2
			c7.8-1.2,11.7-1.7,19.5-2.5c2.1-2.5,3.4-3.7,3.9-3.8c0.4,0,1.9,0.6,4.3,1.9C205.8,190.7,206.4,191.3,206.4,191.6z"/>
		<path d="M251.8,184.9c1.6,1.6,2.4,3.2,2.4,4.8c0,1.5-0.5,3.6-1.4,6.2c-1,2.9-2.4,5.7-4,8.4c-2.6,4.5-5,7.8-7,9.8
			c-1.6,1.6-3.3,2.5-5.2,2.5c-1.8,0.1-3.4-0.7-4.8-2.1c-2.4-2.3-3.6-5.8-3.7-10.5c-0.1-3.1,0.8-6.1,2.6-9c2-3.3,4.9-6.2,8.6-8.5
			c4.5-2.6,9.8-4,15.7-3.9c6.5,0.1,11.9,1.7,16.1,5c5,3.8,7.4,9,7.2,15.2c-0.1,4.8-2.2,8.7-6.1,11.7c-2.9,2.2-6,3.8-9.5,4.9
			c-4,1.3-8.4,2-12.9,2.1c-0.9,0-1.4-0.2-1.4-0.6c0-0.3,0.4-0.6,1.2-0.7c6.8-1.4,12.2-3.8,16.3-7.4c2.2-2,3.7-4,4.6-6.2
			c0.8-2,1.3-4.4,1.4-7.2c0.1-4.9-1.7-8.7-5.5-11.2c-2.8-1.9-6.3-3.1-10.4-3.4c-0.4,0-1,0-1.6,0
			C253.3,184.8,252.4,184.8,251.8,184.9z M249.6,185.2c-4.4,0.6-8.2,2.2-11.2,4.8c-2.4,2-4.2,4.5-5.4,7.3c-0.7,1.7-1,3.5-1,5.6
			c0,2.6,0.6,4.7,1.7,6.2c0.9,1.3,1.9,1.9,2.9,1.9s2.5-1.3,4.3-3.8c3.7-4.9,6.6-9.6,8.5-14.4c0.9-2,1.4-3.7,1.4-5
			C250.8,186.6,250.4,185.7,249.6,185.2z"/>
		<path d="M305.7,195.7c1.2,0.1,2.8,1,4.8,2.6c2.2,1.8,3.3,3.3,3.2,4.6c-0.1,0.9-0.6,1.5-1.6,1.9c-0.9,0.3-2,0.9-3.1,1.8
			c-2.3,1.7-4.9,3.4-7.8,5c-3.8,2.1-7.7,3.6-11.8,4.8c-1.2,0.3-2,0.5-2.5,0.5c-0.6,0-0.8-0.2-0.8-0.6c0-0.2,0.5-0.5,1.4-1.1
			c3.7-2,7.1-4.3,10.2-6.6c2.2-1.7,4.4-3.7,6.5-5.9c1.2-1.3,1.8-2.3,1.8-3c0-0.6-0.7-1.6-2.3-2.7c-0.4-0.3-0.6-0.5-0.6-0.7
			s0.3-0.3,1-0.5C304.8,195.6,305.3,195.6,305.7,195.7z M322.5,197c0.5,0.1,1.2,0.3,2.1,0.8c4.5,2.2,8.1,4.8,10.8,7.7
			c3.4,3.8,5,6.8,4.8,9c-0.1,1.1-0.5,2-1.1,2.6s-1.5,0.8-2.5,0.6c-1.1-0.2-2-0.8-2.5-1.7c-0.2-0.3-0.5-1.1-1.1-2.5
			c-1.2-3.2-2.7-6.1-4.4-8.5c-1.7-2.5-3.6-4.6-5.7-6.4c-0.7-0.6-1.1-1-1.1-1.3C321.8,197.1,322.1,196.9,322.5,197z M335,187.8
			c1.6,0.3,2.9,1,3.8,2.2c0.8,1.1,1.2,2.2,1.1,3.5c-0.1,1.4-0.8,2.5-2.1,3.3c-1.1,0.6-2.3,0.9-3.7,0.6c-1.6-0.3-2.9-1-3.8-2.2
			c-0.8-1.1-1.2-2.2-1.1-3.5c0.1-1.5,0.8-2.6,2-3.3C332.4,187.8,333.6,187.6,335,187.8z M334.9,189.4c-1.1-0.2-2,0-2.7,0.6
			c-0.7,0.5-1,1.2-1.1,2c-0.1,0.9,0.3,1.7,1,2.5c0.6,0.7,1.4,1.1,2.3,1.2c1,0.2,1.9,0,2.7-0.6c0.7-0.5,1-1.1,1.1-1.9
			c0.1-0.9-0.2-1.8-1-2.6C336.5,190,335.8,189.6,334.9,189.4z"/>
		<path d="M362.9,199.2c-0.3-0.2-0.4-0.4-0.4-0.7s0.3-0.4,0.7-0.3c0.4,0.1,0.8,0.2,1.2,0.3c3,1,5.6,2.5,7.9,4.3
			c2.7,2.2,4,4.5,3.7,6.9c-0.1,1-0.6,1.8-1.4,2.2c-0.7,0.3-1.5,0.4-2.4,0.2c-1.4-0.4-2.3-1.3-2.8-2.9c-0.5-1.5-1.2-3.1-2.2-4.8
			C365.7,202,364.3,200.3,362.9,199.2z M365.5,227.2c0.7,0.2,1.8,0,3.3-0.4c6.8-1.9,13.1-4.1,18.6-6.7c5.9-2.8,11.5-6,16.6-9.5
			c0.4-0.2,0.6-0.3,0.9-0.2c0.4,0.1,0.6,0.4,0.6,0.7s-0.2,0.5-0.5,0.9c-4.6,4.8-9.7,8.8-15.2,12c-5.7,3.3-11.8,6.2-18.2,8.9
			c-0.7,0.3-1.3,0.6-1.8,1c-0.8,0.7-1.7,1-2.6,0.8c-1.1-0.3-2.2-1.3-3.5-3.1c-2.1-2.8-3-4.9-2.9-6.2c0.2-1.5,0.6-2.1,1.2-2
			c0.2,0,0.5,0.4,0.9,1C364.2,226.2,365.1,227.1,365.5,227.2z"/>
	</g>
</g>
<g>
	<g>
		<path d="M83.1,357.2c0.8,3.4,0.6,7-0.7,10.7c-1.2,3.8-3.8,7.4-7.5,10.9c-1.2,1.1-2.6,2.2-4.3,3.5c-1.7,1.3-3.6,2.6-5.6,4
			c-2,1.3-4.2,2.7-6.5,4s-4.6,2.5-7,3.5c-2.4,1.1-4.7,2-7,2.7c-2.3,0.8-4.6,1.3-6.8,1.5c-1.1,0.1-2.1,0.2-2.9,0.1
			c-0.8-0.1-1.7-0.3-2.5-0.6c-0.8-0.3-1.7-0.8-2.5-1.5c-0.9-0.6-1.9-1.5-3-2.5c-0.9,1-1.9,1.7-3,2.2s-2.3,0.9-3.6,1.1
			c-0.8,0.1-1.2,0.2-2,0.3c-0.4,0.1-0.8,0-1.2-0.2c-0.4-0.2-0.8-0.5-1.2-0.8c-0.4-0.3-0.8-0.7-1.1-1.1s-0.5-0.8-0.7-1.2
			c-0.9-2.3-1.3-4.5-1.4-6.7c-0.1-2.2,0-4.4,0.1-6.5c0-4-0.1-8.2-0.2-12.6c-0.1-4.4-0.2-8.8-0.3-13.3c-0.1-4.4-0.3-8.8-0.5-13.1
			c-0.2-4.3-0.3-8.4-0.5-12.3c-0.2-3.3-0.3-4.9-0.5-8.2c0-0.1-0.2-0.5-0.5-1.1s-0.6-1.3-0.9-2c-0.3-0.7-0.6-1.4-0.9-2
			c-0.2-0.3-0.2-0.5-0.4-0.9c0-0.5,0-0.7,0-1.2c0,0,0,0-0.1,0.1c0-0.9,0.1-1.8,0.2-3c0.1-1.1,0.4-2.2,0.8-3.2c0.4-1,0.9-1.9,1.6-2.7
			c0.6-0.7,1.5-1.2,2.5-1.4c0.9-0.1,2.2-0.3,3.7-0.4s2.8-0.3,4-0.4c0.6-0.1,1.1-0.2,1.6-0.3c0.5-0.1,1.1-0.3,1.9-0.6
			c0.7-0.3,1.7-0.7,2.9-1.3c1.2-0.5,2.8-1.3,4.7-2.2c2.9-1.4,5.6-2.6,8-3.6c2.5-1,4.8-1.9,7.1-2.6s4.5-1.3,6.7-1.8s4.5-0.9,6.8-1.2
			c3-0.4,5.9-0.5,8.8-0.4s5.5,0.6,7.9,1.4s4.4,2,6.1,3.6s2.7,3.6,3.3,6.1c0.9,4.2,0.4,8.2-1.4,11.8c-1.8,3.6-4.7,7.1-8.6,10.5
			s-8.7,6.7-14.4,9.8c-5.7,3.2-12,6.4-19,9.8c6.4,0,11.9,0.4,16.7,1c4.7,0.6,8.7,1.6,12,2.8c3.3,1.2,5.8,2.8,7.7,4.6
			C81.2,352.4,82.5,354.6,83.1,357.2z M55.5,353.5c-0.5,0-1.5-0.1-2.9-0.2s-3.1-0.1-5-0.2s-3.9-0.1-6.1-0.1c-2.2,0-4.3-0.1-6.3-0.1
			s-3.8-0.1-5.5-0.2s-2.9-0.1-3.6-0.2c-0.1,5.9,0,11.4,0.4,16.7c0.3,5.3,0.7,10.6,1.1,15.9c2-0.1,3-0.1,5-0.1c1.2,0,2.2-0.1,3-0.1
			c0.9,0,1.4-0.1,1.5-0.1c1.9-0.4,3.9-1,6.1-1.8c2.2-0.8,4.4-1.7,6.7-2.8c2.3-1.1,4.6-2.3,6.8-3.7c2.3-1.4,4.5-2.8,6.7-4.3
			c0.8-0.7,1.6-1.4,2.4-2.3c0.8-0.9,1.5-1.9,2.1-2.9s1-2.1,1.3-3.3c0.3-1.1,0.3-2.3,0-3.4c-0.5-1.9-2-3.4-4.5-4.5
			C62.2,354.6,59.1,353.8,55.5,353.5z M26.1,340.6c2.7-1.2,5.4-2.6,8.3-4.2s5.9-3.2,8.9-5c3.1-1.8,6.2-3.7,9.3-5.6
			c3.2-2,6.4-3.9,9.5-5.9c0,0,0,0-0.1,0c1.1-0.8,2.2-1.6,3.3-2.7c1-1,1.9-2.1,2.7-3.2c0.7-1.1,1.3-2.3,1.7-3.5
			c0.4-1.2,0.4-2.3,0.1-3.4c-0.2-0.7-0.5-1.4-1.1-2c-0.6-0.7-1.3-1.2-2.3-1.7s-2.2-0.8-3.6-0.9c-1.4-0.2-3.1-0.1-5.1,0.1
			c-2.7,0.3-5.8,1-9.1,2.1c-3.3,1-6.4,2.2-9.4,3.5s-5.5,2.7-7.7,4.1s-3.5,2.7-4,3.7c-0.1,0.3-0.2,0.8-0.2,1.6
			c-0.1,0.8-0.1,1.7-0.2,2.7s-0.2,2-0.3,2.9c-0.1,0.9-0.3,1.6-0.6,2.1c0,0.5,0,1.2,0,2.2s-0.1,2.1-0.1,3.5c0,1.3-0.1,2.8-0.1,4.5
			C26.2,337.2,26.2,338.9,26.1,340.6z"/>
		<path d="M105.3,382.3c-0.4-1.7-0.5-3.4-0.4-5.3c0.3-6.6,1-13.1,2-19.5s1.9-12.8,2.7-19.1c0.7-6.3,1.4-11.7,1.9-16.1
			s1-8.1,1.5-11.3c0.5-3.1,1-5.9,1.5-8.2c0.5-2.3,1.1-4.6,1.8-6.8c0.4-1.4,0.9-2.8,1.5-4.3s1.2-2.8,2-4.1c0.8-1.3,1.6-2.3,2.5-3.2
			c0.9-0.8,1.9-1.3,3.1-1.4c2.3-0.2,4.1,0,5.4,0.5c1.3,0.6,2.1,1.1,2.5,1.6c0.5,1.2,0.7,1.8,1.2,2.9c0.8-0.1,1.9-0.3,3.2-0.7
			c1.3-0.3,2.6-0.7,4-1c1.3-0.3,2.6-0.7,3.7-1c1.1-0.3,2-0.6,2.6-0.9c3.6-1.2,6.9-2.2,10-3c3.1-0.9,6-1.6,8.8-2.2s5.5-1.1,8.1-1.4
			c2.6-0.4,5.2-0.6,7.8-0.7s4.7-0.1,6.4,0c1.6,0.2,3,0.4,3.9,0.8c1,0.4,1.7,0.9,2.1,1.4c0.4,0.6,0.6,1.2,0.6,1.8
			c0,0.6-0.1,1.2-0.4,1.9c-0.3,0.7-0.9,1.4-1.7,2s-1.9,1.2-3.2,1.7s-3.1,0.8-4.9,1.1c-0.5,0.1-1.6,0.4-3.4,0.7
			c-1.8,0.4-3.7,0.8-5.8,1.2c-2.1,0.4-4,0.9-5.9,1.3s-3.1,0.7-3.8,0.9c0,0,0,0,0.1,0c-0.3,0.1-1.1,0.3-2.3,0.7
			c-1.2,0.4-2.7,0.9-4.4,1.4s-3.6,1.1-5.6,1.8c-2,0.7-4,1.3-5.9,2s-3.7,1.3-5.4,1.9c-1.6,0.6-2.9,1.1-3.9,1.4
			c-3.2,1.4-5.5,3.2-7.1,5.2c-1.6,2.1-2.7,4.3-3.4,6.8c-0.1,0.5-0.4,1.2-0.6,2.3c-0.3,1.1-0.5,2.3-0.8,3.7c-0.3,1.4-0.6,2.8-1,4.4
			c-0.3,1.5-0.7,3-1,4.4s-0.6,2.7-0.8,3.8c-0.2,1.1-0.3,2-0.4,2.5s-0.1,0.9-0.1,1.3s0,0.7,0.1,0.9c0,0.3,0.2,0.4,0.3,0.4
			c0.8-0.1,2.3-0.5,4.7-1.3c2.4-0.8,5.1-1.8,8.3-3s6.6-2.5,10.2-3.8c3.7-1.4,7.2-2.6,10.6-3.8c3.4-1.2,6.4-2.2,9.1-3
			c2.7-0.8,4.6-1.2,5.9-1.3c1.9-0.1,3.1,0.1,3.8,0.7c0.7,0.5,1.1,1.2,1.1,1.9c0.1,1.8-0.4,3.4-1.6,4.8c-1.2,1.4-2.8,2.6-4.7,3.7
			c-0.6,0.3-1.7,0.8-3.4,1.5c-1.6,0.6-3.4,1.3-5.3,2c-1.9,0.7-3.7,1.3-5.4,2c-1.7,0.6-2.9,1.1-3.7,1.4c-4.8,2.1-8.7,3.9-11.7,5.3
			s-5.4,2.5-7.2,3.4s-3.2,1.5-4.2,2s-1.9,0.8-2.7,1.2c-0.8,0.3-1.8,0.6-2.8,1c-1,0.3-3.6,0.6-4.2,1.3c-0.4,0.4-0.5,2.6-0.8,4.7
			c-0.2,2.1-0.4,4.2-0.6,6.5c-0.2,2.2-0.2,4.3-0.3,6.2c0,1.9,0,3.2,0.2,3.9c0.2,0.9,0.4,1.5,0.7,1.9c0.3,0.4,0.7,0.6,1,0.8
			c0.4,0.1,0.7,0.2,1.1,0.2c0.3,0,0.6,0,0.8,0c2.3-0.1,5.1-0.6,8.3-1.5s6.3-1.9,9.4-3.2c2.9-1.2,5.5-2.5,7.6-3.9
			c2.2-1.4,4.2-2.7,6.1-3.8c1.9-1.2,3.8-2.2,5.7-3s4-1.4,6.4-1.5c0.5,0,1.1,0,1.8,0.1s1.3,0.2,2,0.5c0.6,0.3,1.2,0.6,1.6,1
			c0.4,0.4,0.6,1,0.6,1.7c-0.1,1.4-0.6,2.9-1.7,4.3c-1.1,1.4-2.5,2.8-4.2,4.1c-1.7,1.3-3.7,2.6-5.8,3.9c-2.2,1.3-4.4,2.5-6.6,3.6
			c-2.2,1.1-4.4,2.2-6.6,3.1c-2.2,0.9-4.1,1.8-5.8,2.5c-4.2,1.8-8.3,3.1-12.4,4c-4,0.9-7.7,1.5-11,1.7c-3.6,0.2-6.6-0.3-8.8-1.5
			C107.4,387.7,106,385.5,105.3,382.3z"/>
		<path d="M193.8,367c1.7,0.6,3.5,1.3,5.3,2c1.8,0.8,3.6,1.5,5.5,2.2s3.9,1.3,5.9,1.8c2.1,0.5,4.2,0.8,6.5,0.8
			c2.7,0,5.4-0.3,8.1-0.9c2.7-0.6,5.4-1.6,8-2.8c2.6-1.3,5.2-2.8,7.6-4.6c2.4-1.8,4.7-4,6.8-6.4c2.3-2.6,4.2-4.9,5.8-7
			s2.9-4,3.9-5.6s1.7-3.1,2.2-4.3c0.5-1.2,0.7-2.2,0.7-3.1c0-1.3-0.4-2.4-1.2-3.4c-0.8-1-2-1.8-3.5-2.4s-3.1-1.1-5-1.4
			s-3.8-0.5-5.9-0.5c-1.2,0-2.6,0-4.2,0.1c-1.6,0.1-3.3,0.1-4.9,0.2c-1.7,0.1-3.3,0.1-4.8,0.2s-2.9,0.1-4.1,0.1
			c-1.7,0-3.5-0.2-5.4-0.5c-1.9-0.4-3.7-1-5.5-1.8s-3.5-2-5.1-3.4s-2.9-3.2-4-5.3c-0.3-0.7-0.7-1.5-1-2.5c-0.3-0.9-0.5-2-0.5-3.1
			c-0.1-1.2,0-2.4,0.1-3.4c0.1-1.1,0.3-2.1,0.6-3.1c0.6-2.5,1.8-5.1,3.5-7.8c1.7-2.6,3.7-5.2,6.2-7.8c2.4-2.5,5.1-5,8.1-7.4
			c2.9-2.4,6-4.7,9.1-6.8c3.2-2.1,6.3-4.1,9.4-5.8c3.1-1.7,6-3.2,8.7-4.4c3.8-1.7,7.7-2.9,11.6-3.7c3.9-0.8,7.8-1.2,11.7-1.2
			c2.3,0,4.5,0.3,6.5,0.8s3.8,1.3,5.3,2.4c1.5,1,2.6,2.3,3.4,3.9c0.8,1.5,1.1,3.3,1,5.3c-0.1,1.1-0.3,2.1-0.6,2.9
			c-0.3,0.8-0.7,1.4-1.2,1.9s-1,0.8-1.5,1s-1.1,0.3-1.7,0.3c-1.5,0-2.9-0.2-4.1-0.5s-2.4-0.7-3.6-1.1s-2.3-0.8-3.5-1.1
			c-1.2-0.3-2.4-0.5-3.8-0.5c-4.2,0-8.4,0.8-12.7,2.3c-4.3,1.5-8.5,3.5-12.6,5.9s-7.8,5-11.4,7.9c-3.5,2.9-6.6,5.7-9.4,8.5
			c-1.4,1.4-2.5,2.9-3.1,4.3s-1,2.8-0.9,4c0,1.9,0.9,3.3,2.7,4.4c1.7,1,3.8,1.5,6.2,1.5c1.4,0,3.1-0.1,4.9-0.1
			c1.8-0.1,3.7-0.1,5.5-0.2c1.9-0.1,3.7-0.2,5.5-0.2c1.8-0.1,3.4-0.1,4.8-0.1c3.3,0,6.5,0.5,9.5,1.4s5.6,2.3,7.9,4.1
			c2.2,1.8,4,4,5.2,6.6c1.3,2.6,1.8,5.6,1.6,9c-0.1,2.1-0.5,4.1-1.3,6.2c-0.7,2.1-1.7,4.2-2.9,6.3c-1.2,2.1-2.5,4.2-3.9,6.2
			s-3,4.1-4.5,6c-2.8,3.5-5.9,6.8-9.3,9.9c-3.3,3.1-6.8,5.8-10.5,8c-3.7,2.3-7.5,4-11.5,5.3s-8.1,1.9-12.3,1.9
			c-1.8,0-3.7-0.2-5.6-0.6c-1.9-0.4-3.8-0.9-5.7-1.6s-3.7-1.5-5.4-2.6c-1.7-1-3.2-2.2-4.6-3.5c-1.3-1.3-2.4-2.7-3.3-4.3
			c-0.9-1.6-1.4-3.3-1.5-5.1c-0.1-0.9,0-1.8,0.2-2.6C192,367.4,192.7,367,193.8,367z"/>
		<path d="M318.6,376c2.9-8.6,6.2-17.2,9.8-26c3.6-8.7,7.2-17.4,10.9-26c1.5-3.6,2.9-6.8,4.1-9.8c1.2-2.9,2.3-5.6,3.2-8
			c0.9-2.4,1.7-4.6,2.2-6.5c0.6-2,1-3.8,1.3-5.5c0-0.3,0.1-0.7,0.2-1.1s0.1-0.9,0.1-1.5c-0.6,0-1.8,0.2-3.8,0.7s-4.3,1.1-7,2
			c-2.7,0.8-5.5,1.8-8.5,2.8c-3,1.1-5.7,2.2-8.3,3.3c-2,0.9-3.7,1.6-5.1,2.2c-1.3,0.6-2.5,1-3.5,1.3s-1.8,0.5-2.6,0.6
			c-0.8,0.1-1.6,0.1-2.4,0.1c-1.7-0.1-3.1-0.7-4.2-2s-1.6-2.9-1.4-4.9c0.1-1.1,0.3-2.1,0.6-3c0.3-0.9,0.8-1.6,1.4-2.3
			c0.6-0.7,1.4-1.3,2.3-1.9s2.1-1.2,3.4-1.8c14.8-6,29.7-11,44.9-13.6c14.5-2.5,29.9-3.3,45.1-2.2c1.2,0.1,2.6,0.2,4.2,0.4
			c1.6,0.2,3.3,0.4,5,0.7c1.7,0.3,3.3,0.6,4.9,1s3,0.8,4.1,1.2c1.2,0.5,2.2,1.4,2.8,2.6c0.7,1.3,0.8,2.6,0.5,3.9
			c-0.3,1.1-0.6,2.1-1.1,3.1c-0.4,1-1,1.9-1.7,2.6s-1.5,1.3-2.4,1.6c-0.9,0.4-2,0.6-3.1,0.4c-1.9-0.3-4.2-0.9-6.7-1.4
			s-5.1-0.9-7.7-1.1c-5.2-0.4-10.5-0.7-15.7-0.8c-5.3-0.1-10.7,0.2-16.4,1.1c-0.3,0.1-0.5,0.4-0.7,0.8s-0.3,1-0.5,1.7
			c-0.7,2.8-1.4,5.4-2.1,7.5c-0.7,2.2-1.5,4.3-2.5,6.4c-0.9,2.1-2,4.4-3.3,6.9c-1.2,2.5-2.7,5.4-4.3,8.9c-1.6,3.5-3.6,7.6-5.7,12.4
			c-2.2,4.8-4.6,10.6-7.3,17.4c-2.4,6-3.6,9.1-5.9,15.1c-1.4,3.5-2.5,6.6-3.4,9.4s-1.6,5.7-2.4,8.2c-0.3,0.9-1.2,1.7-2.6,2.3
			c-1.4,0.7-2.9,1-4.7,0.8c-1-0.1-1.9-0.5-2.6-1.1c-0.7-0.7-1.3-1.5-1.7-2.5c-0.4-1-0.6-2.1-0.7-3.2
			C317.9,378.2,318.1,377,318.6,376z"/>
		<path d="M457.4,343.4c3.8,2.5,6.3,6.2,7.6,10.9c1.3,4.8,1.2,9.3-0.2,13.6c-3.5,10.9-11,20.2-20.9,25.9c-10.1,5.8-22,7.7-33.4,6
			c-9.6-1.4-17.8-5.3-24.8-11.8c-7-6.4-10.1-12.5-8.9-18.5c0.4-2.1,1.5-3.9,3.2-5.4s3.5-2.2,5.3-2c3.4,0.4,5.3,1.7,5.9,4
			c2.9,11.2,12.5,18.3,23.6,19.7c8.7,1.1,16.3,0.1,22.5-3.6s10.4-8.9,12.4-15.6c1.1-3.5,1-6.6-0.3-9.4s-3.2-4.8-5.7-6.1
			c-2.6-1.3-7.6-2.5-15.2-3.4c-2-0.3-3.4-1.2-4.3-2.7c-0.8-1.6-1-3.3-0.5-5.2c0.5-1.7,1.6-3.2,3.5-4.4c1.9-1.2,4.2-1.7,7-1.3
			c2.1,0.3,4.1,0.6,5.9,0.9c2.2,0.5,3.3,0.7,5.4,1.2c0.8,0.1,3.9-0.5,9.1-1.9c5.3-1.4,9.7-3.4,13.4-6.3c3.7-2.9,6.2-6.4,7.6-10.7
			c1.6-4.9,0.8-9.3-2.5-13.1c-3.2-3.8-8.5-6.1-15.5-7c-11.1-1.4-22.6,1.7-31,9.3c-2.3,2.1-4.7,3.1-7.4,2.8c-2.1-0.2-3.6-1-4.7-2.4
			s-1.4-3.1-0.9-5.1c1.1-4.8,6.9-9.3,17-13.8c10.6-4.7,21.6-5.1,32.9-4.7c8.4,0.3,19.3,5.2,24.6,11.9c5.2,6.7,6.5,14.3,3.6,22.8
			c-2.2,6.5-6.4,11.9-12.5,16.4C473.5,339.1,466.1,342,457.4,343.4z"/>
	</g>
</g>
</svg>
