<?xml version="1.0" encoding="UTF-8"?><svg xmlns="http://www.w3.org/2000/svg" viewBox="0 0 420.98 209.23"><defs><style>.cls-1{fill:none;}.cls-2{letter-spacing:-.08em;}.cls-3{letter-spacing:-.04em;}.cls-4{letter-spacing:0em;}.cls-5{fill:#eee;}.cls-6{fill:#06c167;}.cls-7{letter-spacing:-.07em;}.cls-8{letter-spacing:-.12em;}.cls-9{letter-spacing:-.11em;}.cls-10{letter-spacing:-.02em;}.cls-11{font-family:SourceHanSansJP-Bold-83pv-RKSJ-H, 'Source Han Sans JP';font-size:20px;}.cls-12{letter-spacing:-.12em;}.cls-13{letter-spacing:-.08em;}.cls-14{letter-spacing:-.06em;}.cls-15{letter-spacing:.01em;}.cls-16{letter-spacing:-.02em;}</style></defs><g id="UE-Logo-Color-White-H"><rect class="cls-5" x="207.02" y="37.89" width=".98" height="133.45"/><rect class="cls-1" width="418.47" height="209.23"/></g><g id="UE-Logo-Color-White-V"><g><rect class="cls-6" x="245.95" y="40.05" width="133.45" height="133.45" rx="26.29" ry="26.29"/><path d="M309.9,129.46c0-3.84-3.07-6.85-6.93-6.85s-6.93,3.01-6.93,6.85,3.12,6.85,6.93,6.85,6.93-3.01,6.93-6.85m5.66-11.21v22.43h-5.76v-2.02c-2.01,1.66-4.55,2.6-7.3,2.6-6.82,0-12.16-5.24-12.16-11.78s5.34-11.78,12.16-11.78c2.75,0,5.29,.93,7.3,2.6v-2.02h5.76Zm19.17,17.34h-4.34c-1.32,0-2.17-.57-2.17-1.77v-10.49h6.5v-5.09h-6.5v-6.39h-5.82v6.39h-4.39v5.09h4.39v11.94c0,3.01,2.17,5.4,6.08,5.4h6.24v-5.09Zm13.14,5.66c6.66,0,10.42-3.11,10.42-7.42,0-3.06-2.22-5.35-6.88-6.33l-4.92-.99c-2.86-.52-3.75-1.04-3.75-2.08,0-1.35,1.37-2.18,3.91-2.18,2.75,0,4.76,.73,5.34,3.22h5.76c-.32-4.67-3.75-7.79-10.73-7.79-6.03,0-10.26,2.44-10.26,7.16,0,3.27,2.33,5.4,7.35,6.44l5.5,1.25c2.17,.42,2.75,.99,2.75,1.87,0,1.4-1.64,2.28-4.28,2.28-3.33,0-5.24-.73-5.98-3.22h-5.82c.85,4.67,4.39,7.79,11.58,7.79m-80.8-30.94h21.74v5.19h-15.87v7.42h15.44v5.04h-15.44v7.53h15.87v5.19h-21.74v-30.37Z"/><path d="M357.76,84v-4.08h-1.55c-2.47,0-4.29,1.13-5.39,2.91v-2.73h-4.42v22.13h4.46v-12.58c0-3.43,2.12-5.64,5.04-5.64h1.86Zm-32.09,5.12c.8-3.38,3.58-5.64,6.9-5.64s6.1,2.26,6.85,5.64h-13.75Zm6.98-9.46c-6.58,0-11.58,5.25-11.58,11.5,0,6.59,5.22,11.54,11.98,11.54,4.11,0,7.47-1.78,9.72-4.73l-3.23-2.34c-1.68,2.21-3.89,3.25-6.5,3.25-3.8,0-6.85-2.69-7.47-6.29h18.34v-1.43c0-6.59-4.77-11.5-11.27-11.5m-25.5,19.22c-4.33,0-7.78-3.43-7.78-7.68s3.49-7.68,7.78-7.68,7.73,3.38,7.73,7.68-3.49,7.68-7.73,7.68m-12.15,3.34h4.42v-2.78c2.03,2.04,4.91,3.3,8.04,3.3,6.63,0,11.84-5.16,11.84-11.54s-5.22-11.58-11.84-11.58c-3.14,0-5.97,1.26-8,3.3v-11.06h-4.46v30.37Zm-15.69-3.56c4.29,0,7.6-3.25,7.6-8.07v-18.74h4.64v30.37h-4.6v-2.82c-2.08,2.13-4.95,3.34-8.18,3.34-6.63,0-11.71-4.73-11.71-11.89v-19h4.64v18.74c0,4.9,3.27,8.07,7.6,8.07"/></g></g><g id="guides_-_TURN_OFF_BEFORE_EXPORT"><rect class="cls-5" x="37.88" y="37.89" width="130.83" height="133.45"/><text class="cls-11" transform="translate(57.19 88.65)"><tspan class="cls-13" x="0" y="0">レ</tspan><tspan class="cls-8" x="18.48" y="0">ス</tspan><tspan class="cls-9" x="36" y="0">ト</tspan><tspan class="cls-7" x="53.72" y="0">ラ</tspan><tspan class="cls-3" x="72.28" y="0">ン</tspan><tspan x="91.46" y="0"> </tspan><tspan class="cls-10" x="-1.01" y="24">パ</tspan><tspan class="cls-12" x="18.67" y="24">ー</tspan><tspan class="cls-2" x="36.17" y="24">ト</tspan><tspan class="cls-14" x="54.61" y="24">ナ</tspan><tspan class="cls-16" x="73.35" y="24">ー</tspan><tspan x="93.01" y="24"> </tspan><tspan class="cls-15" x="26.09" y="48">ロ</tspan><tspan class="cls-4" x="46.35" y="48">ゴ</tspan></text></g></svg>