<?xml version="1.0" encoding="UTF-8"?>
<svg id="_レイヤー_2" data-name="レイヤー 2" xmlns="http://www.w3.org/2000/svg" viewBox="0 0 103 78.95">
  <defs>
    <style>
      .cls-1 {
        fill: #b08323;
      }
    </style>
  </defs>
  <g id="_レイヤー_2-2" data-name="レイヤー 2">
    <path class="cls-1" d="M75.93,.93h-4.91s-6.06,4.28-8.04,8.07c.03,3.8,.03,6.99,.03,6.99,0,0-2.97-1.47-2.97-3.03V7.95s2.46-6.29,4.66-7.02c.57-.29,.54-.93-.7-.93h-10.88s-3.73,3.99-4.15,5.59V14.94c-.76,.95-1.74,1-2.97,.03l-.47-2c-.91-2.77-.65-5.38,.47-7.99V.95s-3.01,.01-3.01,.01c0,0-5.46,.78-6.97,3.03V15c-2.12,0-4.44-4.6-4.13-11.01-2.04-.1-3.1,0-3.1,0,0,0-13.98,3.41-16.79,13.05,.03,.45,0,6.91,0,6.91,0,0,4.28,5.31,14.04,8.06,8.55,1.98,16.12,2.01,16.12,2.01h14.78s8.9-.69,12.03-1.07c7.6-.45,19.44-4.86,23.01-11.95v-6.96c-2.78-6.1-10.88-11.59-16.05-13.12ZM23.97,12.99h-3.93v-1.05h3.93v1.05Zm17.06-1.04h-1.06v-.55h-1v-.83h1v-.6h1.06v1.98ZM56.03,2.99h.94v1.98h-.94v-1.98Zm-2.02,5.98h-2.01v-1h2.01v1Zm3.02,4.98h-2v-2h2v2Zm10.96-4v-2.02h1.02v2.02h-1.02Zm4,4h-1.02v.96h-.98v-.96h-.98v-1h2.98v1Zm1-7.98v-1h3v2h-2v-1h-1Zm5.04,5.98h-1.02v1h-1.02v-2h2.04v1Zm5.97-1.97h-1.97v-1.04h1.97v1.04Z"/>
    <path class="cls-1" d="M12,30.96h-4l-.02,4.99h.96v15.02h-.89v5.94h10.95l1.99-1.99v-19.87c-.97-2-4.13-3.3-8.98-4.08Zm5.99,19l-.98,.98h-4.99v-3.97h5.98v2.99Zm.01-9l-.99,.99h-5.01v-3.99h6v3Z"/>
    <path class="cls-1" d="M32.99,41.95l.06-1.99h.85v-2.9l-2.17-2.09h-4.68v4.04h.94l-.02,1.91-2.98,9.11-1.83,1.94v4.98h5.85v-6.01h2.98v6.01h5v-3.99l-4-11.02Zm-4,6l1-4.01h1s1.04,3.91,1,4.01c-.04,.11-3,0-3,0Z"/>
    <polygon class="cls-1" points="39.97 40.97 39.97 53.97 38.99 53.97 38.99 56.95 43.95 56.95 43.95 50.37 45.95 48.96 47.01 51.01 47.01 56.9 53.01 56.9 53.01 55.05 48.97 47.95 48.01 47.95 48 44.97 48.97 44.97 52 41.93 52 36.97 46 36.97 46 38.9 46.97 38.93 47.01 40.39 44.01 44.93 42.99 44.93 42.99 41.93 43.99 41.93 43.99 36.97 38.99 36.97 38.99 40.99 39.97 40.97"/>
    <polygon class="cls-1" points="53.97 36.97 62.97 36.97 62.97 35.9 67.95 35.9 67.95 43.93 64.05 43.93 63.99 40.91 59.01 41.95 59.01 44.97 64.05 44.97 64.05 49.9 59.01 49.9 59.01 51.86 64.03 51.86 64.05 48.93 67.95 48.93 67.95 56.95 53.97 56.95 53.97 54.88 54.97 54.88 54.97 39.01 53.97 39.01 53.97 36.97"/>
    <path class="cls-1" d="M82.97,34.96l-.98-.94-12.94,1.88v1.06l.95,.99,.03,4.96,.99,.02-.04,6.06-.99,.03v7.91h5.03l-.05-3.03-.99,.02,.03-4.98,3,.02,.04,7.98h5.91v-3.86l-2.81-3.7,2.81-2.43v-12Zm-2.93,7.07l-1.05,1.85h-4.95v-3.89h6v2.04Z"/>
    <polygon class="cls-1" points="94.02 56.95 89.01 56.95 89.01 53.94 90 53.94 90 45.13 84.99 37.95 84.99 34.02 87.06 31.91 90.93 31.91 90.93 34.88 89.78 34.98 89.75 38.97 91.09 40.91 91.98 40.91 93 39 93 30.93 99 30.93 99 34.37 94.01 42.97 94.02 56.95"/>
    <rect class="cls-1" y="61.95" width="103" height="1.01"/>
    <polygon class="cls-1" points="7.01 68.03 10.93 68.03 10.93 72.97 12.97 71.86 12.97 68.29 16.88 68.03 16.88 71.78 13.93 74.95 14.01 78.93 9.97 78.93 10.01 74.95 7.01 71.9 7.01 68.03"/>
    <path class="cls-1" d="M26.04,75.99l-2.01-5.02-.09-3.04h-3.94l-.04,.11v2.87l-2.25,5.35-.71,1.68-1.04,.03v.96h4.04l-.02-1,1.06-.94,2.96-.03-.05,1.97h3.02v-2.94h-.95Zm-3.1-1.04h-1.34v-1.96h1.34v1.96Z"/>
    <polygon class="cls-1" points="27.99 67.95 27.99 78.93 31.01 78.93 31.01 74.95 32.99 76.93 32.99 78.93 34.99 78.93 34.99 76.95 37 74.95 37 76.96 36 76.95 36 78.95 39.99 78.95 39.99 67.93 36.01 67.93 35.55 70.93 34.97 72.99 32.97 72.99 32.46 70.95 31.99 67.95 27.99 67.95"/>
    <path class="cls-1" d="M50,76.94l-3.01-8.99h-2.99s-2.97,10.01-2.97,10.01h-1.04v.99h4.02v-1.99l2.97-.02v2.01h4.03v-2h-1.01Zm-3.74-2.01h-1.27v-2.02h1.29l-.02,2.02Z"/>
    <polygon class="cls-1" points="58.01 71.95 61 71.95 61 68.95 59 67.96 54 67.96 51.34 70.69 51.34 76.35 54 78.95 61.98 78.95 62.01 72.95 58 72.95 58 73.96 59 73.96 59 75.95 55 75.96 55 71.97 56 70.96 58 70.95 58.01 71.95"/>
    <polygon class="cls-1" points="63 67.96 63 77.56 64.47 78.95 70.5 78.95 72 77.46 72 67.96 69.01 67.96 69 75.96 67.97 76.82 67.01 76.81 66.01 75.95 66 67.96 63 67.96"/>
    <polygon class="cls-1" points="82 71.96 82 69.5 80.47 67.96 76.51 67.96 73.17 70.53 73.17 76.95 76.01 78.95 81.98 78.95 81.99 74.95 81 74.96 81 75.96 77.57 75.96 77 75.43 77 71.96 78 70.96 79.99 70.95 80 71.96 82 71.96"/>
    <path class="cls-1" d="M84,69.96v8s-1,0-1,0v.99s4,0,4,0v-4s4,0,4,0v3h-1s0,1,0,1h4.01v-11h-3.03l.02,4s-4,.01-4,0,0-4,0-4h-3.99v2h.99Z"/>
    <polygon class="cls-1" points="95 67.95 95 78.95 99.01 78.95 99.01 77.94 98.02 77.94 98.02 67.95 95 67.95"/>
  </g>
</svg>