<?xml version="1.0" encoding="utf-8"?>
<!-- Generator: Adobe Illustrator 26.5.1, SVG Export Plug-In . SVG Version: 6.00 Build 0)  -->
<svg version="1.1" id="レイヤー_1" xmlns="http://www.w3.org/2000/svg" xmlns:xlink="http://www.w3.org/1999/xlink" x="0px"
	 y="0px" viewBox="0 0 500 500" style="enable-background:new 0 0 500 500;" xml:space="preserve">
<style type="text/css">
	.st0{fill:#FFFFFF;}
	.st1{fill:#8BA0AA;}
	.st2{fill:#CD8664;}
	.st3{fill:none;}
	.st4{fill:#E3A564;}
	.st5{fill:#F9A05A;}
</style>
<g>
	
		<ellipse transform="matrix(0.7071 -0.7071 0.7071 0.7071 -155.5264 271.528)" class="st0" cx="250" cy="323.5" rx="170.2" ry="170.2"/>
	<g>
		<path class="st1" d="M235.3,258.2c2.2,3.7,5.5,7.5,8.7,9.9c1.9,1.4,3.8,2.8,3.8,4.1c0,2.1-1.9,4.2-3.7,4.2c-1.5,0-3.6-1.1-6.1-3.4
			c-5.1-4.5-8.1-9-10.7-16c-1.3,3.2-4.3,11.1-13.5,18c-1.7,1.2-2.8,1.7-3.9,1.7c-1.8,0-3.7-2.1-3.7-4.4c0-1.3,0.6-2.1,2.9-3.4
			c4.2-2.4,8.7-7.8,11-13.4c1.8-4.2,2.8-9.2,2.9-14.8c0.1-3.7,0.1-5.7,3.3-5.7c3,0,3.9,0.9,3.9,3.9c0,2-0.2,3.6-0.4,5
			C229.8,245,232.1,252.8,235.3,258.2z"/>
		<path class="st1" d="M261.4,243.6c-1.5,2.3-3.2,4.1-3.9,4.8c-1.1,1.1-1.9,1.4-3,1.4c-1.7,0-3.3-1.5-3.3-3.2c0-1.2,0.2-1.4,2.6-3.7
			c1.2-1.1,3.2-4,4-5.5c1.1-2.3,1.7-2.8,3.3-2.8c2.2,0,3.7,1,3.7,2.5c0,0.2,0,0.4-0.1,0.7h23.9c1.4,0,2.3,1,2.3,2.9
			c0,1.8-0.9,2.8-2.3,2.8H261.4z M268.4,260.8c2.4-2.8,2.5-2.9,3.8-2.9c1.9,0,3.7,1.4,3.7,2.9c0,1.6-1.2,2.8-3.3,5
			c1.4,1,3.1,2,4.5,3.3c1,0.9,1.4,1.7,1.4,2.5c0,1.9-1.7,3.9-3.3,3.9c-1,0-1.8-0.4-3.2-1.6c-2.4-2-3.4-2.8-4.6-3.7
			c-2.2,1.6-9.2,6-12.3,6c-1.5,0-2.9-1.6-2.9-3.6c0-1.7,0.7-2.3,3.8-3.4c2-0.7,4.2-1.7,5.8-2.7c-0.9-0.6-2.3-1.4-3.4-1.9
			c-1.7-0.8-2.2-1.4-2.2-2.6c0-1.6,1.8-3.5,3.4-3.5c1.7,0,6,2.7,7.7,3.7C267.9,261.4,268.3,261,268.4,260.8z M285.9,257.2
			c0,9.2,1.9,11.5,2.2,11.5c0.2,0,0.3-0.1,0.4-0.3c0.2-0.5,0.5-1.6,0.5-1.9c0.2-0.7,0.9-1,1.9-1c1.8,0,2.8,0.9,2.8,2.3
			c0,0.9-0.9,9.1-6,9.1c-4.9,0-7.1-7.7-7.8-12.3c-0.3-2-0.5-4.1-0.7-6.5c-0.1-0.9-0.3-0.9-1.5-0.9H255c-1.4,0-2.3-1-2.3-2.8
			c0-1.8,0.8-2.8,2.3-2.8h25.6c3.9,0,5.4,1.1,5.4,3.9V257.2z M262.4,249.9c-1.3,0-2-0.9-2-2.5c0-1.6,0.7-2.5,2-2.5h23.3
			c1.3,0,2,0.9,2,2.5c0,1.6-0.7,2.5-2,2.5H262.4z"/>
	</g>
	<g>
		<path class="st1" d="M156.9,433c-2,0-3.5-0.3-4.4-2.1c-3.6-7-6.5-12.4-8.6-17.2h-0.2c0.8,3.4,0.9,8.7,0.9,16.9
			c0,1.6-0.8,2.4-2.9,2.4c-2,0-3.1-0.8-3.1-2.4v-19.7c0-2.4,1.4-3.9,4.4-3.9c2.1,0,3.3,0.4,4.3,2.2c4.3,8.2,7,13.6,8.5,17.1h0.2
			c-0.7-3.3-0.9-9-0.9-16.8c0-1.6,0.9-2.5,2.9-2.5c2,0,3,0.9,3,2.5v19.3C161.1,432,159.1,433,156.9,433z"/>
		<path class="st1" d="M175.1,433.2c-7.6,0-10.9-4.2-10.9-10.1c0-7,4.4-10,10.9-10c6.5,0,10.9,3.1,10.9,10v0
			C185.9,429.3,182.3,433.2,175.1,433.2z M179.3,423.1c0-4.3-2.1-6-4.2-6c-2.1,0-4.2,1.8-4.2,6c0,4.3,2,6,4.2,6h0
			C177.3,429.2,179.2,427.2,179.3,423.1L179.3,423.1z"/>
		<path class="st1" d="M192.3,433.1c-2.1,0-3.4-1.1-3.4-3.1c0-2,1.3-3,3.4-3c2.1,0,3.4,1.1,3.4,3.1
			C195.7,432,194.3,433.1,192.3,433.1z"/>
	</g>
	<path class="st2" d="M259.4,418c-3,0.9-5.9,1.3-8.9,1.3c-10.5,0-19.4-4.2-26.4-12.6c-2-2.4-4.8-3.7-8.1-3.7c-3,0-5.7,0.9-8.1,3
		c-3,2.6-4.4,5.5-4.4,8.9c0,2.6,0.9,4.8,2.6,6.8c5,5.9,11.1,10.7,18.7,14.4c8.3,4.1,16.8,6.1,25.7,6.1c5.2,0,10.3-0.7,15.3-2.2
		c12.4-3.3,21.1-10.3,26.4-21.1c3.1-6.1,4.6-12.6,4.6-19.8c0-5.7-0.9-11.1-3-16.1c-3.7-9.6-9.6-15.9-17.6-18.7
		c4.4-3.1,7.9-7.4,10.7-12.9c2.8-5.5,4.1-11.3,4.1-17.4c0-8.3-2.6-15.5-7.9-21.8s-12-10.5-20.3-12.9c-4.4-1.3-9.1-2-13.7-2
		c-7.9,0-15.5,1.8-22.9,5.7c-6.7,3.5-12,7.8-16.3,13.1c-1.7,2-2.4,4.4-2.4,6.8c0,3.5,1.5,6.5,4.4,8.9c3,2.4,6.1,3.3,9.6,3
		c3-0.4,5.4-1.7,7-4.1c5.5-7,12.6-10.5,21.1-10.5c2.2,0,4.4,0.4,6.5,0.9c4.6,1.3,8.1,4.4,10.3,9.1c2,4.8,2.2,9.1,0.6,12.9
		c-3.9,8.5-10.5,12.6-20,12.2c-6.8-0.2-11.5,0.2-14,1.5c-3.3,1.7-5,4.6-5,9.2c0,3.5,0.9,6.3,2.8,8.1c2.4,2.4,8.1,3.3,17.2,3.1
		c12-0.2,19.8,4.2,23.5,13.7c0.9,2.4,1.3,5,1.3,7.8c0,3.5-0.7,6.8-2,9.8C268.1,413.6,264.4,416.7,259.4,418z"/>
	<g>
		
			<ellipse transform="matrix(0.7071 -0.7071 0.7071 0.7071 -155.2419 271.4102)" class="st0" cx="250" cy="323.1" rx="170.3" ry="170.3"/>
		<g>
			<path class="st3" d="M230.1,247.6c-0.7,1.6-1.7,4.2-3.2,7.7h6.4L230.1,247.6z"/>
			<path class="st3" d="M188.1,249.5c4.2,0,6.2-1.3,6.2-3.8c0-1.7-1-2.9-2.9-3.4c-1.1-0.3-2.9-0.5-5.3-0.4c-0.7,0-1,0.4-1,1v6.6
				c0.2,0,0.7,0,1.5,0C187.2,249.5,187.7,249.5,188.1,249.5z"/>
			<path class="st4" d="M333.7,178.9c29.7,17.3,53.1,42.9,67.5,74c0.6,1.3,1.9,2.1,3.3,2.1c0.5,0,1-0.1,1.5-0.3
				c1.8-0.8,2.6-3,1.8-4.8c-15.1-32.5-39.5-59.2-70.5-77.2c-1.7-1-3.9-0.4-4.9,1.3C331.4,175.7,331.9,177.9,333.7,178.9z"/>
			<path class="st4" d="M418.3,279.1c-0.5-1.9-2.5-3.1-4.4-2.6c-1.9,0.5-3.1,2.5-2.6,4.4c3.6,13.7,5.4,27.9,5.4,42.1
				c0,61.9-34,118.4-88.8,147.4c-1.8,0.9-2.4,3.1-1.5,4.9c0.7,1.2,1.9,1.9,3.2,1.9c0.6,0,1.2-0.1,1.7-0.4
				c57.1-30.3,92.6-89.2,92.6-153.8C423.9,308.2,422,293.4,418.3,279.1z"/>
			<path class="st4" d="M299.9,482.2c-16.1,5-32.9,7.6-49.9,7.6c-38.6,0-76.3-13.5-106-38.1c-29.3-24.2-49.7-58-57.3-95
				c-0.4-2-2.3-3.2-4.3-2.8c-2,0.4-3.2,2.3-2.8,4.3c7.9,38.7,29.1,73.9,59.7,99.1c31,25.6,70.3,39.7,110.6,39.7
				c17.8,0,35.3-2.7,52-7.9c1.9-0.6,3-2.6,2.4-4.5C303.8,482.6,301.8,481.6,299.9,482.2z"/>
			<path class="st4" d="M83.3,323.1c0-29.7,7.9-58.9,22.9-84.3c14.5-24.7,35.3-45.4,60.1-59.8c1.7-1,2.3-3.2,1.3-4.9
				c-1-1.7-3.2-2.3-4.9-1.3c-25.9,15-47.5,36.6-62.7,62.4c-15.6,26.6-23.9,57-23.9,88c0,2,1.6,3.6,3.6,3.6
				C81.7,326.7,83.3,325.1,83.3,323.1z"/>
			<path class="st5" d="M283.1,140.3c-2.3,16-6.7,34.1-8.9,42.4h13.6c4.1-5.1,19.1-24.4,21.7-36.3c1.8-8.3-3.2-13.8-9-15.6
				c-5.6-1.7-13.4-0.4-17.1,8.9C283.4,139.9,283.3,140.1,283.1,140.3z"/>
			<path class="st5" d="M190.4,146.4c2.6,11.9,17.6,31.2,21.7,36.3h13.3c-2.2-8.5-6.7-27.2-9-43.4c-3.8-9-11.5-10.3-17-8.6
				C193.6,132.6,188.5,138.1,190.4,146.4z"/>
			<path class="st5" d="M223.5,137.8c2.4,17.2,7.5,37.7,9.4,44.9h13.2c-3.7-1.5-6.4-5.1-6.4-9.4c0-5.6,4.6-10.1,10.1-10.1
				c5.6,0,10.1,4.6,10.1,10.1c0,4.3-2.7,7.9-6.4,9.4h13.2c1.9-7.2,7-27.6,9.4-44.9c1.1-7.7-0.3-13.7-4-18
				c-5.9-6.8-16.6-7.8-22.4-7.8c-5.8,0-16.5,1-22.4,7.8C223.8,124.1,222.4,130.2,223.5,137.8z"/>
			<path class="st2" d="M207.6,188.6c0,0,0.1,0.1,0.1,0.1c0.1,0.1,0.2,0.2,0.3,0.3c0.1,0.1,0.2,0.1,0.2,0.2c0.1,0.1,0.3,0.2,0.4,0.2
				c0.1,0,0.2,0.1,0.2,0.1c0.2,0.1,0.3,0.1,0.5,0.2c0.1,0,0.1,0,0.2,0.1c0.2,0.1,0.5,0.1,0.8,0.1h59.2c0,0,0,0,0,0c0,0,0,0,0,0h19.7
				c0.1,0,0.1,0,0.1,0c0.1,0,0.1,0,0.2,0c1,0,2.1-0.4,2.8-1.3c0.9-1,20.8-25.2,24.3-40.7c2.8-12.7-5.3-21.4-14-24.1
				c-7.9-2.4-14.5-0.3-19.4,3.8c-0.8-4.9-2.7-9.1-5.7-12.6c-6.6-7.6-17-9.7-24.3-10.2c0,0,0,0,0,0c0,0,0-0.1,0-0.1
				c0.5-4.2,2.3-6.8,4.8-7.1c1.5-0.2,2.7,0.5,2.9,1.1c0.7,1.9,2.9,2.8,4.7,2c1.9-0.7,2.8-2.8,2-4.7c-1.5-3.8-6-6.2-10.6-5.6
				c-0.8,0.1-2.2,0.4-3.8,1.2v-7.6c0-2-1.6-3.6-3.6-3.6c-2,0-3.6,1.6-3.6,3.6v7.6c-1.6-0.8-3-1.1-3.8-1.2c-4.6-0.6-9.1,1.8-10.6,5.6
				c-0.7,1.9,0.2,4,2,4.7c1.9,0.7,4-0.2,4.7-2c0.2-0.6,1.5-1.3,2.9-1.1c2.5,0.3,4.3,2.9,4.8,7.1c0,0.1,0,0.1,0,0.1c0,0,0,0,0,0
				c-7.3,0.5-17.6,2.6-24.2,10.2c-3,3.4-4.9,7.5-5.7,12.3c-4.8-4-11.4-6-19.1-3.6c-8.7,2.7-16.8,11.4-14,24.1
				C186.7,163.4,206.7,187.6,207.6,188.6z M199.4,130.8c5.5-1.7,13.2-0.4,17,8.6c2.3,16.2,6.8,34.9,9,43.4h-13.3
				c-4.1-5.1-19.1-24.4-21.7-36.3C188.5,138.1,193.6,132.6,199.4,130.8z M249.8,112.1c5.8,0,16.5,1,22.4,7.8c3.7,4.2,5,10.3,4,18
				c-2.4,17.2-7.5,37.7-9.4,44.9h-13.2c-1.2,0.5-2.4,0.7-3.7,0.7c-1.3,0-2.6-0.3-3.7-0.7h-13.2c-1.9-7.2-7-27.6-9.4-44.9
				c-1.1-7.7,0.3-13.7,4-18C233.4,113.1,244,112.1,249.8,112.1z M300.6,130.8c5.8,1.8,10.9,7.3,9,15.6
				c-2.6,11.9-17.6,31.2-21.7,36.3h-13.6c2.1-8.3,6.6-26.5,8.9-42.4c0.1-0.2,0.2-0.4,0.3-0.6C287.2,130.3,295,129,300.6,130.8z"/>
			<path class="st2" d="M289.3,196h-78.9c-2,0-3.6,1.6-3.6,3.6c0,2,1.6,3.6,3.6,3.6h78.9c2,0,3.6-1.6,3.6-3.6
				C292.9,197.6,291.3,196,289.3,196z"/>
			<path class="st0" d="M260,173.3c0-5.6-4.6-10.1-10.1-10.1c-5.6,0-10.1,4.6-10.1,10.1c0,4.3,2.7,7.9,6.4,9.4
				c1.2,0.5,2.4,0.7,3.7,0.7c1.3,0,2.6-0.3,3.7-0.7C257.3,181.2,260,177.5,260,173.3z"/>
			<path class="st5" d="M106.3,106.9H117c2,0,3.6-1.6,3.6-3.6c0-2-1.6-3.6-3.6-3.6h-10.7c-2,0-3.6,1.6-3.6,3.6
				C102.7,105.3,104.3,106.9,106.3,106.9z"/>
			<path class="st5" d="M136.3,106.9H147c2,0,3.6-1.6,3.6-3.6c0-2-1.6-3.6-3.6-3.6h-10.7c-2,0-3.6,1.6-3.6,3.6
				C132.7,105.3,134.3,106.9,136.3,106.9z"/>
			<path class="st5" d="M126.6,132.3c2,0,3.6-1.6,3.6-3.6v-15.8c0-2-1.6-3.6-3.6-3.6c-2,0-3.6,1.6-3.6,3.6v15.8
				C123,130.7,124.6,132.3,126.6,132.3z"/>
			<path class="st5" d="M126.6,97.2c2,0,3.6-1.6,3.6-3.6V77.9c0-2-1.6-3.6-3.6-3.6c-2,0-3.6,1.6-3.6,3.6v15.8
				C123,95.6,124.6,97.2,126.6,97.2z"/>
			<path class="st5" d="M262.5,35h10.7c2,0,3.6-1.6,3.6-3.6c0-2-1.6-3.6-3.6-3.6h-10.7c-2,0-3.6,1.6-3.6,3.6
				C258.8,33.4,260.5,35,262.5,35z"/>
			<path class="st5" d="M292.4,35h10.7c2,0,3.6-1.6,3.6-3.6c0-2-1.6-3.6-3.6-3.6h-10.7c-2,0-3.6,1.6-3.6,3.6
				C288.8,33.4,290.4,35,292.4,35z"/>
			<path class="st5" d="M282.8,60.4c2,0,3.6-1.6,3.6-3.6V41.1c0-2-1.6-3.6-3.6-3.6c-2,0-3.6,1.6-3.6,3.6v15.8
				C279.2,58.8,280.8,60.4,282.8,60.4z"/>
			<path class="st5" d="M282.8,25.4c2,0,3.6-1.6,3.6-3.6V6c0-2-1.6-3.6-3.6-3.6c-2,0-3.6,1.6-3.6,3.6v15.8
				C279.2,23.8,280.8,25.4,282.8,25.4z"/>
			<path class="st5" d="M360.8,131.3h10.7c2,0,3.6-1.6,3.6-3.6s-1.6-3.6-3.6-3.6h-10.7c-2,0-3.6,1.6-3.6,3.6
				S358.8,131.3,360.8,131.3z"/>
			<path class="st5" d="M390.7,131.3h10.7c2,0,3.6-1.6,3.6-3.6s-1.6-3.6-3.6-3.6h-10.7c-2,0-3.6,1.6-3.6,3.6
				S388.7,131.3,390.7,131.3z"/>
			<path class="st5" d="M381.1,156.7c2,0,3.6-1.6,3.6-3.6v-15.8c0-2-1.6-3.6-3.6-3.6c-2,0-3.6,1.6-3.6,3.6v15.8
				C377.5,155.1,379.1,156.7,381.1,156.7z"/>
			<path class="st5" d="M381.1,121.7c2,0,3.6-1.6,3.6-3.6v-15.8c0-2-1.6-3.6-3.6-3.6c-2,0-3.6,1.6-3.6,3.6v15.8
				C377.5,120.1,379.1,121.7,381.1,121.7z"/>
			<path class="st2" d="M258.6,414.5c-2.8,0.9-5.6,1.2-8.3,1.2c-9.9,0-18.2-4-24.8-11.8c-1.9-2.3-4.5-3.5-7.6-3.5
				c-2.8,0-5.4,0.9-7.6,2.8c-2.8,2.4-4.2,5.2-4.2,8.3c0,2.4,0.9,4.5,2.4,6.4c4.7,5.6,10.4,10.1,17.5,13.6c7.8,3.8,15.8,5.7,24.1,5.7
				c4.9,0,9.7-0.7,14.4-2.1c11.6-3.1,19.8-9.7,24.8-19.8c3-5.7,4.3-11.8,4.3-18.6c0-5.4-0.9-10.4-2.8-15.1c-3.5-9-9-14.9-16.5-17.5
				c4.2-3,7.5-6.9,10.1-12.2c2.6-5.2,3.8-10.6,3.8-16.3c0-7.8-2.4-14.6-7.5-20.5c-5-5.9-11.3-9.9-19.1-12.2
				c-4.2-1.2-8.5-1.9-12.9-1.9c-7.5,0-14.6,1.7-21.5,5.4c-6.3,3.3-11.3,7.3-15.3,12.3c-1.6,1.9-2.3,4.2-2.3,6.4
				c0,3.3,1.4,6.1,4.2,8.3c2.8,2.3,5.7,3.1,9,2.8c2.8-0.3,5-1.6,6.6-3.8c5.2-6.6,11.8-9.9,19.8-9.9c2.1,0,4.2,0.3,6.1,0.9
				c4.3,1.2,7.6,4.2,9.7,8.5c1.9,4.5,2.1,8.5,0.5,12.2c-3.6,8-9.9,11.8-18.8,11.5c-6.4-0.2-10.8,0.2-13.2,1.4
				c-3.1,1.6-4.7,4.3-4.7,8.7c0,3.3,0.9,5.9,2.6,7.6c2.3,2.3,7.6,3.1,16.2,3c11.3-0.2,18.6,4,22.1,12.9c0.9,2.3,1.2,4.7,1.2,7.3
				c0,3.3-0.7,6.4-1.9,9.2C266.7,410.3,263.3,413.2,258.6,414.5z"/>
		</g>
		<g>
			<path class="st2" d="M161.5,431.1c-2,0-3.5-0.3-4.4-2.1c-3.6-7-6.5-12.5-8.6-17.2h-0.2c0.8,3.5,0.9,8.7,0.9,16.9
				c0,1.6-0.8,2.4-2.9,2.4c-2,0-3.1-0.8-3.1-2.4V409c0-2.4,1.4-3.9,4.4-3.9c2.1,0,3.4,0.4,4.3,2.2c4.3,8.2,7,13.6,8.5,17.1h0.2
				c-0.7-3.3-0.9-9-0.9-16.9c0-1.6,0.9-2.5,2.9-2.5c2,0,3,0.9,3,2.5v19.3C165.7,430.2,163.7,431.1,161.5,431.1z"/>
			<path class="st2" d="M179.7,431.4c-7.6,0-10.9-4.2-10.9-10.1c0-7,4.4-10.1,10.9-10.1c6.5,0,10.9,3.1,10.9,10.1v0
				C190.6,427.4,186.9,431.4,179.7,431.4z M183.9,421.3c0-4.3-2.1-6-4.2-6c-2.1,0-4.2,1.8-4.2,6c0,4.3,2,6,4.2,6h0
				C181.9,427.3,183.9,425.3,183.9,421.3L183.9,421.3z"/>
			<path class="st2" d="M196.9,431.2c-2.1,0-3.4-1.2-3.4-3.1c0-2,1.3-3,3.4-3c2.1,0,3.5,1.1,3.5,3.1
				C200.4,430.2,199,431.2,196.9,431.2z"/>
		</g>
		<g>
			<path class="st2" d="M234.9,253.9c2.2,3.7,5.5,7.5,8.7,9.9c1.9,1.4,3.8,2.8,3.8,4.1c0,2.1-1.9,4.2-3.7,4.2
				c-1.5,0-3.6-1.1-6.1-3.4c-5.1-4.5-8.1-9-10.7-16c-1.3,3.2-4.3,11.1-13.5,18.1c-1.7,1.2-2.8,1.7-3.9,1.7c-1.9,0-3.7-2.1-3.7-4.4
				c0-1.3,0.6-2.1,2.9-3.4c4.2-2.4,8.7-7.9,11-13.4c1.8-4.2,2.8-9.2,2.9-14.8c0.1-3.7,0.1-5.7,3.3-5.7c3,0,3.9,0.9,3.9,3.9
				c0,2-0.2,3.6-0.4,5C229.5,240.7,231.8,248.5,234.9,253.9z"/>
			<path class="st2" d="M261,239.3c-1.5,2.3-3.2,4.1-3.9,4.8c-1.1,1.1-1.9,1.4-3,1.4c-1.7,0-3.3-1.5-3.3-3.2c0-1.2,0.2-1.4,2.6-3.7
				c1.2-1.1,3.2-4,4-5.6c1.1-2.3,1.7-2.8,3.3-2.8c2.2,0,3.7,1,3.7,2.5c0,0.2,0,0.4-0.1,0.7h24c1.4,0,2.3,1,2.3,2.9
				c0,1.8-0.9,2.8-2.3,2.8H261z M268.1,256.5c2.4-2.8,2.5-2.9,3.8-2.9c1.9,0,3.7,1.4,3.7,2.9c0,1.6-1.2,2.8-3.3,5
				c1.4,1,3.1,2,4.5,3.3c1,0.9,1.4,1.7,1.4,2.5c0,1.9-1.7,3.9-3.3,3.9c-1,0-1.8-0.4-3.2-1.6c-2.4-2-3.4-2.8-4.6-3.7
				c-2.2,1.6-9.3,6-12.3,6c-1.5,0-2.9-1.6-2.9-3.6c0-1.7,0.7-2.3,3.8-3.4c2-0.7,4.2-1.7,5.8-2.7c-0.9-0.6-2.3-1.4-3.4-1.9
				c-1.7-0.8-2.2-1.4-2.2-2.6c0-1.6,1.9-3.5,3.4-3.5c1.7,0,6,2.7,7.7,3.7C267.5,257.1,267.9,256.7,268.1,256.5z M285.6,253
				c0,9.2,1.9,11.5,2.2,11.5c0.2,0,0.3-0.1,0.4-0.3c0.2-0.5,0.5-1.6,0.5-1.9c0.2-0.7,0.9-1,1.9-1c1.8,0,2.8,0.9,2.8,2.3
				c0,0.9-0.9,9.1-6,9.1c-4.9,0-7.1-7.7-7.8-12.3c-0.3-2-0.5-4.1-0.7-6.5c-0.1-0.9-0.3-0.9-1.5-0.9h-22.9c-1.4,0-2.3-1-2.3-2.8
				c0-1.8,0.8-2.8,2.3-2.8h25.6c3.9,0,5.4,1.1,5.4,3.9V253z M262,245.6c-1.3,0-2-0.9-2-2.5c0-1.6,0.7-2.5,2-2.5h23.3
				c1.3,0,2,0.9,2,2.5c0,1.6-0.7,2.5-2,2.5H262z"/>
		</g>
	</g>
</g>
</svg>
