<?xml version="1.0" encoding="utf-8"?>
<!-- Generator: Adobe Illustrator 26.5.1, SVG Export Plug-In . SVG Version: 6.00 Build 0)  -->
<svg version="1.1" id="レイヤー_1" xmlns="http://www.w3.org/2000/svg" xmlns:xlink="http://www.w3.org/1999/xlink" x="0px"
	 y="0px" viewBox="0 0 500 500" style="enable-background:new 0 0 500 500;" xml:space="preserve">
<style type="text/css">
	.st0{fill:#FFFFFF;}
	.st1{fill:none;}
	.st2{fill:#EFBF0A;}
	.st3{fill:#E9D214;}
	.st4{fill:#D5A501;}
</style>
<g>
	
		<ellipse transform="matrix(0.7071 -0.7071 0.7071 0.7071 -155.3961 271.4742)" class="st0" cx="250" cy="323.3" rx="170.1" ry="170.1"/>
	<g>
		<path class="st1" d="M188.2,249.8c4.1,0,6.2-1.3,6.2-3.8c0-1.7-1-2.9-2.9-3.4c-1.1-0.3-2.9-0.5-5.3-0.4c-0.7,0-1,0.4-1,1v6.6
			c0.2,0,0.7,0,1.5,0C187.3,249.8,187.8,249.8,188.2,249.8z"/>
		<path class="st1" d="M230.1,247.9c-0.7,1.6-1.7,4.2-3.2,7.7h6.4L230.1,247.9z"/>
		<path class="st2" d="M333.6,179.3c29.7,17.3,53,42.8,67.5,73.9c0.6,1.3,1.9,2.1,3.3,2.1c0.5,0,1-0.1,1.5-0.3
			c1.8-0.8,2.6-3,1.8-4.8c-15.1-32.4-39.4-59.1-70.4-77.1c-1.7-1-3.9-0.4-4.9,1.3C331.2,176.1,331.8,178.3,333.6,179.3z"/>
		<path class="st2" d="M418.1,279.4c-0.5-1.9-2.5-3.1-4.4-2.6c-1.9,0.5-3.1,2.5-2.6,4.4c3.6,13.7,5.4,27.8,5.4,42.1
			c0,61.8-34,118.2-88.7,147.2c-1.8,0.9-2.4,3.1-1.5,4.9c0.6,1.2,1.9,1.9,3.2,1.9c0.6,0,1.1-0.1,1.7-0.4
			c57.1-30.2,92.5-89.1,92.5-153.6C423.7,308.4,421.8,293.7,418.1,279.4z"/>
		<path class="st2" d="M299.8,482.2c-16.1,5-32.8,7.6-49.8,7.6c-38.6,0-76.2-13.5-105.9-38c-29.3-24.2-49.6-57.9-57.2-94.9
			c-0.4-2-2.3-3.2-4.3-2.8c-2,0.4-3.2,2.3-2.8,4.3c7.9,38.6,29.1,73.8,59.7,99c31,25.6,70.2,39.7,110.5,39.7c17.7,0,35.2-2.7,52-7.9
			c1.9-0.6,3-2.6,2.4-4.5C303.8,482.7,301.7,481.6,299.8,482.2z"/>
		<path class="st2" d="M83.5,323.3c0-29.7,7.9-58.8,22.9-84.2c14.5-24.7,35.3-45.4,60-59.8c1.7-1,2.3-3.2,1.3-4.9
			c-1-1.7-3.2-2.3-4.9-1.3c-25.8,15-47.5,36.6-62.6,62.3c-15.6,26.5-23.9,56.9-23.9,87.9c0,2,1.6,3.6,3.6,3.6
			C81.9,326.9,83.5,325.3,83.5,323.3z"/>
		<path class="st3" d="M283.1,140.7c-2.3,15.9-6.7,34.1-8.9,42.4h13.6c4.1-5.1,19.1-24.4,21.7-36.3c1.8-8.3-3.2-13.8-9-15.6
			c-5.6-1.7-13.4-0.4-17.1,8.9C283.3,140.3,283.2,140.5,283.1,140.7z"/>
		<path class="st3" d="M190.4,146.8c2.6,11.9,17.6,31.1,21.7,36.3h13.3c-2.2-8.5-6.7-27.1-9-43.3c-3.8-9-11.5-10.3-17-8.6
			C193.6,133,188.6,138.5,190.4,146.8z"/>
		<path class="st3" d="M223.5,138.3c2.4,17.2,7.5,37.6,9.4,44.8h13.2c-3.7-1.5-6.4-5.1-6.4-9.4c0-5.6,4.5-10.1,10.1-10.1
			c5.6,0,10.1,4.5,10.1,10.1c0,4.3-2.7,7.9-6.4,9.4h13.2c1.9-7.2,7-27.6,9.4-44.8c1.1-7.7-0.3-13.7-4-17.9
			c-5.9-6.8-16.5-7.8-22.3-7.8s-16.4,1-22.3,7.8C223.8,124.6,222.5,130.6,223.5,138.3z"/>
		<path class="st4" d="M207.6,189c0,0,0.1,0.1,0.1,0.1c0.1,0.1,0.2,0.2,0.3,0.3c0.1,0.1,0.2,0.1,0.2,0.2c0.1,0.1,0.3,0.2,0.4,0.2
			c0.1,0,0.2,0.1,0.2,0.1c0.2,0.1,0.3,0.1,0.5,0.2c0.1,0,0.1,0,0.2,0.1c0.2,0.1,0.5,0.1,0.8,0.1h19.7c0,0,0,0,0,0c0,0,0,0,0,0h59.1
			c0.1,0,0.1,0,0.1,0c0.1,0,0.1,0,0.2,0c1,0,2.1-0.4,2.8-1.3c0.8-1,20.8-25.2,24.3-40.6c2.8-12.7-5.3-21.4-14-24.1
			c-7.8-2.4-14.5-0.3-19.3,3.8c-0.8-4.9-2.7-9.1-5.7-12.5c-6.6-7.6-17-9.7-24.3-10.1c0,0,0,0,0,0c0,0,0-0.1,0-0.1
			c0.5-4.2,2.3-6.8,4.8-7.1c1.5-0.2,2.7,0.5,2.9,1.1c0.7,1.9,2.8,2.8,4.7,2c1.9-0.7,2.8-2.8,2-4.7c-1.5-3.8-6-6.2-10.6-5.6
			c-0.8,0.1-2.2,0.4-3.8,1.2v-7.6c0-2-1.6-3.6-3.6-3.6c-2,0-3.6,1.6-3.6,3.6v7.6c-1.6-0.8-3-1.1-3.8-1.2c-4.6-0.6-9,1.7-10.6,5.6
			c-0.7,1.9,0.2,4,2,4.7c1.9,0.7,4-0.2,4.7-2c0.2-0.6,1.5-1.3,2.9-1.1c2.5,0.3,4.3,2.9,4.8,7.1c0,0.1,0,0.1,0,0.1c0,0,0,0,0,0
			c-7.3,0.5-17.6,2.6-24.2,10.1c-3,3.4-4.9,7.5-5.7,12.3c-4.8-4-11.4-6-19.1-3.6c-8.7,2.7-16.8,11.4-14,24.1
			C186.8,163.9,206.8,188,207.6,189z M199.5,131.2c5.5-1.7,13.2-0.4,17,8.6c2.3,16.2,6.8,34.9,9,43.3h-13.3
			c-4.1-5.1-19.1-24.4-21.7-36.3C188.6,138.5,193.6,133,199.5,131.2z M249.8,112.6c5.8,0,16.4,1,22.3,7.8c3.7,4.2,5,10.3,4,17.9
			c-2.4,17.2-7.5,37.6-9.4,44.8h-13.2c-1.2,0.5-2.4,0.7-3.7,0.7c-1.3,0-2.6-0.3-3.7-0.7h-13.2c-1.9-7.2-7-27.6-9.4-44.8
			c-1.1-7.7,0.3-13.7,4-17.9C233.4,113.6,244,112.6,249.8,112.6z M300.5,131.2c5.8,1.8,10.9,7.3,9,15.6
			c-2.6,11.9-17.6,31.1-21.7,36.3h-13.6c2.1-8.3,6.6-26.4,8.9-42.4c0.1-0.2,0.2-0.4,0.3-0.6C287.1,130.8,295,129.5,300.5,131.2z"/>
		<path class="st4" d="M292.9,199.9c0-2-1.6-3.6-3.6-3.6h-78.8c-2,0-3.6,1.6-3.6,3.6s1.6,3.6,3.6,3.6h78.8
			C291.3,203.6,292.9,201.9,292.9,199.9z"/>
		<path class="st0" d="M259.9,173.7c0-5.6-4.5-10.1-10.1-10.1c-5.6,0-10.1,4.5-10.1,10.1c0,4.3,2.7,7.9,6.4,9.4
			c1.2,0.5,2.4,0.7,3.7,0.7c1.3,0,2.6-0.3,3.7-0.7C257.3,181.6,259.9,177.9,259.9,173.7z"/>
		<path class="st3" d="M106.5,107.4h10.7c2,0,3.6-1.6,3.6-3.6c0-2-1.6-3.6-3.6-3.6h-10.7c-2,0-3.6,1.6-3.6,3.6
			C102.9,105.8,104.5,107.4,106.5,107.4z"/>
		<path class="st3" d="M136.4,107.4h10.7c2,0,3.6-1.6,3.6-3.6c0-2-1.6-3.6-3.6-3.6h-10.7c-2,0-3.6,1.6-3.6,3.6
			C132.8,105.8,134.4,107.4,136.4,107.4z"/>
		<path class="st3" d="M126.8,132.8c2,0,3.6-1.6,3.6-3.6v-15.7c0-2-1.6-3.6-3.6-3.6c-2,0-3.6,1.6-3.6,3.6v15.7
			C123.2,131.1,124.8,132.8,126.8,132.8z"/>
		<path class="st3" d="M126.8,97.7c2,0,3.6-1.6,3.6-3.6V78.4c0-2-1.6-3.6-3.6-3.6c-2,0-3.6,1.6-3.6,3.6v15.7
			C123.2,96.1,124.8,97.7,126.8,97.7z"/>
		<path class="st3" d="M262.4,35.6h10.7c2,0,3.6-1.6,3.6-3.6c0-2-1.6-3.6-3.6-3.6h-10.7c-2,0-3.6,1.6-3.6,3.6
			C258.8,34,260.4,35.6,262.4,35.6z"/>
		<path class="st3" d="M292.4,35.6h10.7c2,0,3.6-1.6,3.6-3.6c0-2-1.6-3.6-3.6-3.6h-10.7c-2,0-3.6,1.6-3.6,3.6
			C288.8,34,290.4,35.6,292.4,35.6z"/>
		<path class="st3" d="M282.8,61c2,0,3.6-1.6,3.6-3.6V41.6c0-2-1.6-3.6-3.6-3.6c-2,0-3.6,1.6-3.6,3.6v15.7
			C279.1,59.4,280.8,61,282.8,61z"/>
		<path class="st3" d="M282.8,26c2,0,3.6-1.6,3.6-3.6V6.6c0-2-1.6-3.6-3.6-3.6c-2,0-3.6,1.6-3.6,3.6v15.7
			C279.1,24.4,280.8,26,282.8,26z"/>
		<path class="st3" d="M360.6,131.8h10.7c2,0,3.6-1.6,3.6-3.6s-1.6-3.6-3.6-3.6h-10.7c-2,0-3.6,1.6-3.6,3.6S358.6,131.8,360.6,131.8
			z"/>
		<path class="st3" d="M390.6,131.8h10.7c2,0,3.6-1.6,3.6-3.6s-1.6-3.6-3.6-3.6h-10.7c-2,0-3.6,1.6-3.6,3.6S388.6,131.8,390.6,131.8
			z"/>
		<path class="st3" d="M380.9,157.2c2,0,3.6-1.6,3.6-3.6v-15.7c0-2-1.6-3.6-3.6-3.6c-2,0-3.6,1.6-3.6,3.6v15.7
			C377.3,155.5,378.9,157.2,380.9,157.2z"/>
		<path class="st3" d="M380.9,122.1c2,0,3.6-1.6,3.6-3.6v-15.7c0-2-1.6-3.6-3.6-3.6c-2,0-3.6,1.6-3.6,3.6v15.7
			C377.3,120.5,378.9,122.1,380.9,122.1z"/>
		<path class="st4" d="M247.1,432.1c2.1,1.9,4.7,2.9,7.8,2.9c3.1,0,5.7-1,8-2.9c2.1-1.9,3.1-4.5,3.1-7.5V315.3
			c0-3.6-1.2-6.6-3.6-9.2c-2.6-2.6-5.6-3.8-9.2-3.8c-3.6,0-7.1,1.6-10.2,4.5v-0.2l-26.4,22.9c-2.3,1.9-3.5,4.5-3.5,7.8
			c0,2.9,1,5.6,3.1,7.8c2.3,2.6,4.9,3.8,8,3.8c2.6,0,5-0.9,7.1-2.8l12.7-11.8l-0.2,90.2C243.8,427.6,244.9,430.2,247.1,432.1z"/>
	</g>
	<g>
		<path class="st4" d="M235.1,248.4c2.2,3.7,5.5,7.5,8.7,9.9c1.9,1.4,3.8,2.8,3.8,4.1c0,2.1-1.9,4.2-3.7,4.2c-1.5,0-3.6-1.1-6.1-3.4
			c-5-4.5-8.1-9-10.7-16c-1.3,3.2-4.3,11.1-13.5,18c-1.7,1.2-2.7,1.7-3.9,1.7c-1.8,0-3.7-2.1-3.7-4.4c0-1.3,0.6-2.1,2.9-3.4
			c4.2-2.4,8.7-7.8,11-13.4c1.8-4.2,2.7-9.2,2.9-14.8c0.1-3.7,0.1-5.7,3.3-5.7c3,0,3.9,0.9,3.9,3.9c0,2-0.2,3.6-0.4,5
			C229.7,235.2,232,243,235.1,248.4z"/>
		<path class="st4" d="M261.2,233.8c-1.5,2.3-3.2,4.1-3.9,4.8c-1.1,1.1-1.9,1.4-3,1.4c-1.7,0-3.3-1.5-3.3-3.2c0-1.2,0.2-1.4,2.6-3.7
			c1.2-1.1,3.2-4,4-5.5c1.1-2.3,1.7-2.8,3.3-2.8c2.2,0,3.7,1,3.7,2.5c0,0.2,0,0.4-0.1,0.7h23.9c1.4,0,2.3,1,2.3,2.9
			c0,1.8-0.9,2.8-2.3,2.8H261.2z M268.2,251c2.4-2.8,2.5-2.9,3.8-2.9c1.9,0,3.7,1.4,3.7,2.9c0,1.6-1.2,2.8-3.3,5
			c1.4,1,3.1,2,4.5,3.3c1,0.9,1.4,1.7,1.4,2.5c0,1.9-1.7,3.9-3.3,3.9c-1,0-1.8-0.4-3.2-1.6c-2.4-2-3.4-2.8-4.6-3.7
			c-2.2,1.6-9.2,5.9-12.3,5.9c-1.5,0-2.9-1.6-2.9-3.6c0-1.7,0.7-2.3,3.8-3.4c2-0.7,4.2-1.7,5.8-2.7c-0.9-0.6-2.3-1.4-3.4-1.9
			c-1.7-0.8-2.2-1.4-2.2-2.6c0-1.6,1.8-3.5,3.4-3.5c1.7,0,6,2.7,7.7,3.7C267.7,251.6,268.1,251.2,268.2,251z M285.7,247.4
			c0,9.2,1.9,11.5,2.2,11.5c0.2,0,0.3-0.1,0.4-0.3c0.2-0.5,0.5-1.6,0.5-1.9c0.2-0.7,0.9-1,1.9-1c1.8,0,2.8,0.9,2.8,2.3
			c0,0.9-0.9,9.1-5.9,9.1c-4.9,0-7.1-7.7-7.8-12.3c-0.3-2-0.5-4.1-0.7-6.5c-0.1-0.9-0.3-0.9-1.5-0.9h-22.9c-1.4,0-2.3-1-2.3-2.8
			c0-1.8,0.8-2.8,2.3-2.8h25.6c3.9,0,5.4,1.1,5.4,3.9V247.4z M262.2,240.1c-1.3,0-2-0.9-2-2.5c0-1.6,0.7-2.5,2-2.5h23.3
			c1.3,0,2,0.9,2,2.5c0,1.6-0.7,2.5-2,2.5H262.2z"/>
	</g>
	<g>
		<path class="st4" d="M196.1,434.2c-2,0-3.5-0.3-4.4-2.1c-3.6-7-6.5-12.4-8.6-17.2h-0.2c0.8,3.4,0.9,8.7,0.9,16.9
			c0,1.6-0.8,2.4-2.9,2.4c-2,0-3.1-0.8-3.1-2.4v-19.7c0-2.4,1.4-3.9,4.4-3.9c2.1,0,3.3,0.4,4.3,2.2c4.3,8.1,7,13.6,8.5,17.1h0.2
			c-0.7-3.3-0.9-9-0.9-16.8c0-1.6,0.9-2.5,2.9-2.5c2,0,3,0.9,3,2.5v19.3C200.3,433.3,198.3,434.2,196.1,434.2z"/>
		<path class="st4" d="M214.3,434.4c-7.6,0-10.9-4.2-10.9-10.1c0-7,4.4-10,10.9-10c6.5,0,10.8,3.1,10.8,10v0
			C225.1,430.5,221.5,434.4,214.3,434.4z M218.5,424.4c0-4.3-2.1-6-4.2-6c-2.1,0-4.2,1.8-4.2,6c0,4.3,2,6,4.2,6h0
			C216.5,430.4,218.5,428.4,218.5,424.4L218.5,424.4z"/>
		<path class="st4" d="M231.5,434.3c-2.1,0-3.4-1.1-3.4-3.1c0-2,1.3-3,3.4-3c2.1,0,3.4,1.1,3.4,3.1
			C234.9,433.3,233.5,434.3,231.5,434.3z"/>
	</g>
</g>
</svg>
