<?xml version="1.0" encoding="utf-8"?>
<!-- Generator: Adobe Illustrator 26.5.1, SVG Export Plug-In . SVG Version: 6.00 Build 0)  -->
<svg version="1.1" id="レイヤー_1" xmlns="http://www.w3.org/2000/svg" xmlns:xlink="http://www.w3.org/1999/xlink" x="0px"
	 y="0px" viewBox="0 0 100 100" style="enable-background:new 0 0 100 100;" xml:space="preserve">
<style type="text/css">
	.st0{fill:#B08323;stroke:#7A5A28;stroke-width:0.7013;stroke-linejoin:round;stroke-miterlimit:10;}
	.st1{fill:#B08323;stroke:#7A5A28;stroke-width:0.9116;stroke-linejoin:round;stroke-miterlimit:10;}
</style>
<g>
	<g>
		<path class="st0" d="M12.8,69.8H19l6.3,13l2.5,6H28c-0.3-2.9-0.8-6.7-0.8-10.1v-9h5.8v28.1h-6.2l-6.3-14l-2.5-5.9l0,0
			c0.3,3.1,0.8,6.7,0.8,10.1v10H13V69.8H12.8z"/>
		<path class="st0" d="M36,86.2c0-6.9,4.6-10.9,9.5-10.9S55,79.3,55,86.2c0,6.9-4.6,11.8-9.5,11.8C40.6,98,36,92.9,36,86.2z
			 M48.9,86.2c0-3.5-1-5.6-3.2-5.6s-3.4,2.2-3.4,5.6c0,3.4,1,5.6,3.4,5.6C47.8,91.8,48.9,89.6,48.9,86.2z"/>
		<path class="st0" d="M55.5,95.2c0-1,0.7-1.8,1.7-1.8s1.7,0.8,1.7,1.8c0,1-0.7,2.8-1.7,2.8S55.5,96.2,55.5,95.2z"/>
		<path class="st0" d="M62.5,88.9h8.3V65.2h-7.2V59c4.2-0.8,7-1,9.7-2.8h6.9v32.7h7V98H62.5V88.9z"/>
	</g>
	<g>
		<g>
			<g>
				<path class="st0" d="M65.4,10.3c0,1-0.8,1.7-1.7,1.7c-0.1,0-0.3,0-0.4,0l-2.9,13.2c0,0.1-0.1,0.3-0.3,0.3H40.2
					c-0.1,0-0.3-0.1-0.3-0.3L37,12c-0.1,0-0.3,0-0.4,0c-0.8,0-1.5-0.8-1.7-1.7c0-1.1,0.7-2,1.8-2c0.8,0,1.5,0.7,1.5,1.7
					c0,0.4,0,0.7-0.1,1l5.9,2.8c0.1,0.1,0.3,0,0.4-0.1l4.9-8.3c-0.6-0.3-0.8-1-0.8-1.5c0-1,0.7-1.7,1.5-1.8c1,0,1.8,0.8,1.8,1.8
					c0,0.7-0.3,1.3-0.8,1.5l4.9,8.3c0.1,0.1,0.3,0.1,0.4,0.1l5.9-2.8c-0.1-0.3-0.3-0.7-0.1-1c0.1-0.8,0.7-1.5,1.5-1.7
					C64.6,8.3,65.4,9.2,65.4,10.3z"/>
			</g>
		</g>
	</g>
	<g>
		<path class="st1" d="M40.1,31.7c0,0.4,0,0.9,0,1.5c0.2,3.3,1.3,12.6,9.1,16.6c-1.1,0.7-2,1.8-2.4,2.7c-4.6-2.4-6.9-6.7-8.2-10.8
			c-1.3,3.8-3.5,7.8-7.5,10.8c-0.5-0.9-1.6-1.8-2.7-2.7c8.6-5.3,8-15.3,8.2-18.4h3.5C40.1,31.3,40.1,31.7,40.1,31.7z"/>
		<path class="st1" d="M68.4,40c0,5.3,0.2,9.5,1.3,9.5c0.4,0,0.4-1.3,0.4-2.9c0.5,0.7,1.3,1.6,2,2.2c-0.2,2.9-0.7,4.2-2.6,4.2
			c-3.3,0-4-4.4-4.2-10h-4.2l2.9,1.1c-0.5,1.1-1.3,2.2-2,3.3c1.3,0.9,2.4,1.8,3.1,2.6l-2.6,2.6c-0.7-0.7-1.6-1.6-2.9-2.7
			c-1.6,1.5-3.5,2.7-5.3,3.6c-0.5-0.7-1.6-2-2.4-2.6c1.8-0.7,3.5-1.8,4.9-3.1c-1.1-0.7-2.2-1.5-3.3-2.2l2.2-2.2
			c1.1,0.5,2.2,1.3,3.3,2c0.5-0.7,1.1-1.6,1.5-2.6h-6.7v-2c-0.7-0.5-2-1.6-2.7-2c2.2-1.6,3.8-4.6,4.6-7.8l3.3,0.7
			c-0.2,0.5-0.4,0.9-0.4,1.5h12.2v2.7H57.4c-0.2,0.2-0.2,0.4-0.4,0.7h11.9v2.7H56.5v-1.6c-0.5,0.9-1.1,1.6-1.6,2.4H68.4z"/>
	</g>
</g>
</svg>
