<?xml version="1.0" encoding="utf-8"?>
<!-- Generator: Adobe Illustrator 26.5.1, SVG Export Plug-In . SVG Version: 6.00 Build 0)  -->
<svg version="1.1" id="レイヤー_1" xmlns="http://www.w3.org/2000/svg" xmlns:xlink="http://www.w3.org/1999/xlink" x="0px"
	 y="0px" viewBox="0 0 100 100" style="enable-background:new 0 0 100 100;" xml:space="preserve">
<style type="text/css">
	.st0{fill:#808080;stroke:#4D4D4D;stroke-width:0.6993;stroke-linejoin:round;stroke-miterlimit:10;}
	.st1{fill:#808080;stroke:#4D4D4D;stroke-width:0.909;stroke-linejoin:round;stroke-miterlimit:10;}
</style>
<g>
	<g>
		<path class="st0" d="M11.8,70.6h6.2l6.3,13l2.5,6h0.1c-0.3-2.9-0.8-6.7-0.8-10.1v-9h5.7v27h-6.2l-6.3-13l-2.5-5.9h-0.1
			c0.3,3.1,0.8,6.7,0.8,10.1v9h-5.7C11.8,97.7,11.8,70.6,11.8,70.6z"/>
		<path class="st0" d="M35,86.9c0-6.9,4.6-10.9,9.5-10.9S54,80.1,54,86.9c0,6.9-4.6,10.8-9.5,10.8C39.4,97.7,35,93.7,35,86.9z
			 M47.7,86.9c0-3.5-1-5.6-3.2-5.6c-2.2,0-3.4,2.2-3.4,5.6s1,5.6,3.4,5.6C46.7,92.5,47.7,90.3,47.7,86.9z"/>
		<path class="st0" d="M54.4,95.9c0-1,0.7-1.8,1.7-1.8s1.7,0.8,1.7,1.8c0,1-0.7,1.8-1.7,1.8C55,97.7,54.4,96.9,54.4,95.9z"/>
		<path class="st0" d="M61,92c9.8-9.5,16.4-17.1,16.4-23.1c0-3.8-2-5.9-5-5.9c-2.7,0-4.8,2-6.6,4.1l-5-5.3c3.8-4.3,7.4-6.4,13-6.4
			c7.6,0,12.9,5.2,12.9,13.1c0,7.1-5.7,15.1-11.7,21.5c2-0.3,4.6-0.6,6.3-0.6h7.1v8.4H61V92z"/>
	</g>
	<g>
		<g>
			<g>
				<path class="st0" d="M65,10.3c0,1-0.8,1.7-1.7,1.7c-0.1,0-0.3,0-0.4,0L60,25.1c0,0.1-0.1,0.3-0.3,0.3H39.9
					c-0.1,0-0.3-0.1-0.3-0.3l-2.9-13.1c-0.1,0-0.3,0-0.4,0c-0.8,0-1.5-0.8-1.7-1.7c0-1.1,0.7-2,1.8-2c0.8,0,1.5,0.7,1.5,1.7
					c0,0.4,0,0.7-0.1,1l5.9,2.8c0.1,0.1,0.3,0,0.4-0.1L49,5.4c-0.6-0.3-0.8-1-0.8-1.5c0-1,0.7-1.7,1.5-1.8c1,0,1.8,0.8,1.8,1.8
					c0,0.7-0.3,1.3-0.8,1.5l4.9,8.3c0.1,0.1,0.3,0.1,0.4,0.1l5.9-2.8c-0.1-0.3-0.3-0.7-0.1-1c0.1-0.8,0.7-1.5,1.5-1.7
					C64.2,8.3,65,9.1,65,10.3z"/>
			</g>
		</g>
	</g>
	<g>
		<path class="st1" d="M39.8,31.6c0,0.4,0,0.9,0,1.5c0.2,3.3,1.3,12.5,9.1,16.5c-1.1,0.7-2,1.8-2.4,2.7c-4.5-2.4-6.9-6.7-8.2-10.7
			c-1.3,3.8-3.5,7.8-7.5,10.7c-0.5-0.9-1.6-1.8-2.7-2.7c8.5-5.3,8-15.3,8.2-18.4h3.5V31.6z"/>
		<path class="st1" d="M68,39.9c0,5.3,0.2,9.5,1.3,9.5c0.4,0,0.4-1.3,0.4-2.9c0.5,0.7,1.3,1.6,2,2.2c-0.2,2.9-0.7,4.2-2.5,4.2
			c-3.3,0-4-4.4-4.2-10h-4.2l2.9,1.1c-0.5,1.1-1.3,2.2-2,3.3c1.3,0.9,2.4,1.8,3.1,2.5l-2.5,2.5c-0.7-0.7-1.6-1.6-2.9-2.7
			c-1.6,1.5-3.5,2.7-5.3,3.6c-0.5-0.7-1.6-2-2.4-2.5c1.8-0.7,3.5-1.8,4.9-3.1c-1.1-0.7-2.2-1.5-3.3-2.2l2.2-2.2
			c1.1,0.5,2.2,1.3,3.3,2c0.5-0.7,1.1-1.6,1.5-2.5h-6.7v-2c-0.7-0.5-2-1.6-2.7-2c2.2-1.6,3.8-4.5,4.5-7.8l3.3,0.7
			c-0.2,0.5-0.4,0.9-0.4,1.5h12.2v2.7H57c-0.2,0.2-0.2,0.4-0.4,0.7h11.8v2.7H56.1v-1.6c-0.5,0.9-1.1,1.6-1.6,2.4H68z"/>
	</g>
</g>
</svg>
