<?xml version="1.0" encoding="utf-8"?>
<!-- Generator: Adobe Illustrator 26.5.1, SVG Export Plug-In . SVG Version: 6.00 Build 0)  -->
<svg version="1.1" id="レイヤー_1" xmlns="http://www.w3.org/2000/svg" xmlns:xlink="http://www.w3.org/1999/xlink" x="0px"
	 y="0px" viewBox="0 0 100 100" style="enable-background:new 0 0 100 100;" xml:space="preserve">
<style type="text/css">
	.st0{fill:#603813;}
</style>
<g>
	<g>
		<g>
			<path class="st0" d="M9.4,70.5H16l6.7,13l2.7,6h0.2c-0.4-2.9-0.9-6.8-0.9-10v-9h6.2v27.1h-6.6l-6.7-13.1l-2.7-5.9h-0.2
				c0.3,3,0.8,6.7,0.8,10v9H9.4V70.5z"/>
			<path d="M31.2,97.9h-7l-6.8-13.2l-2.3-5.1c0.1,0.5,0.1,1,0.2,1.5c0.3,2.4,0.6,5.1,0.6,7.5v9.2H9.2V70.3h7L23,83.4l2.2,5
				c-0.3-2.7-0.7-6.1-0.7-8.9v-9.2h6.7V97.9z M24.5,97.4h6.2V70.8H25v8.7c0,3.1,0.5,6.9,0.8,9.7l0.1,0.6h-0.6l-2.7-6.2l-6.7-12.8
				H9.7v26.6h5.7v-8.7c0-2.4-0.3-5.1-0.6-7.5c-0.1-0.9-0.2-1.7-0.3-2.5l0-0.3h0.6l2.7,6.1L24.5,97.4z"/>
		</g>
		<g>
			<path class="st0" d="M34.1,86.8c0-6.9,4.9-10.9,10.2-10.9c5.2,0,10.1,4,10.1,10.9c0,6.8-4.9,10.9-10.1,10.9
				C39,97.7,34.1,93.7,34.1,86.8z M47.8,86.8c0-3.5-1.1-5.6-3.5-5.6c-2.4,0-3.5,2.2-3.5,5.6c0,3.4,1.1,5.6,3.5,5.6
				C46.7,92.4,47.8,90.2,47.8,86.8z"/>
			<path d="M44.3,97.9c-5.2,0-10.4-3.8-10.4-11.1c0-7.3,5.2-11.1,10.4-11.1c5.2,0,10.4,3.8,10.4,11.1C54.6,94.1,49.4,97.9,44.3,97.9
				z M44.3,76.2c-4.9,0-9.9,3.7-9.9,10.6c0,7,5,10.6,9.9,10.6c4.9,0,9.9-3.6,9.9-10.6C54.1,79.8,49.2,76.2,44.3,76.2z M44.3,92.7
				c-2.4,0-3.8-2.1-3.8-5.9c0-3.8,1.3-5.9,3.8-5.9c2.4,0,3.7,2.1,3.7,5.9C48,90.6,46.7,92.7,44.3,92.7z M44.3,81.4
				c-2.7,0-3.3,2.9-3.3,5.4c0,2.4,0.6,5.4,3.3,5.4c2.7,0,3.2-2.9,3.2-5.4C47.5,84.4,46.9,81.4,44.3,81.4z"/>
		</g>
		<g>
			<path class="st0" d="M54.8,95.8c0-1,0.7-1.8,1.8-1.8c1,0,1.8,0.8,1.8,1.8c0,1-0.8,1.9-1.8,1.9C55.6,97.6,54.8,96.8,54.8,95.8z"/>
			<path d="M56.6,97.9c-1.2,0-2-0.9-2-2.1c0-1.2,0.9-2.1,2-2.1c1.1,0,2,0.9,2,2.1C58.6,97,57.8,97.9,56.6,97.9z M56.6,94.2
				c-0.9,0-1.5,0.7-1.5,1.6c0,0.9,0.7,1.6,1.5,1.6s1.5-0.7,1.5-1.6C58.1,94.9,57.5,94.2,56.6,94.2z"/>
		</g>
		<g>
			<path class="st0" d="M60.9,92.2l4.6-6.3c2.5,2.4,5.4,4,8.7,4c3.9,0,6.4-1.6,6.4-4.8c0-3.6-1.9-5.7-10.6-5.7v-7
				c7.1,0,9.4-2.2,9.4-5.5c0-2.9-1.7-4.4-4.8-4.4c-2.8,0-4.9,1.3-7.5,3.5l-5-6.1c3.9-3.2,8-5.2,12.9-5.2c8.6,0,14.3,4,14.3,11.5
				c0,4.1-2.2,7.4-6.7,9.2v0.3c4.7,1.4,8.1,4.8,8.1,10.1c0,7.8-7.1,12.2-15.4,12.2C68.6,98,63.9,95.7,60.9,92.2z"/>
			<path d="M75.2,98.3c-6.2,0-11.1-2-14.5-5.9l-0.1-0.2l0.1-0.2l4.8-6.5l0.2,0.2c2.8,2.6,5.6,4,8.5,4c3.9,0,6.1-1.6,6.1-4.5
				c0-3.4-1.7-5.5-10.4-5.5h-0.2v-7.5h0.2c8.2,0,9.1-3,9.1-5.2c0-2.7-1.6-4.2-4.5-4.2c-2.8,0-4.9,1.3-7.3,3.4L67,66.4l-5.4-6.5
				l0.2-0.2c4.2-3.6,8.4-5.2,13.1-5.2c9.1,0,14.5,4.4,14.5,11.7c0,4.3-2.3,7.5-6.6,9.3c5.1,1.6,8,5.4,8,10.3
				C90.8,93.2,84.4,98.3,75.2,98.3z M61.2,92.2c3.3,3.7,8,5.6,14,5.6c7.3,0,15.2-3.7,15.2-11.9c0-4.8-2.9-8.4-7.9-9.9l-0.2-0.1v-0.6
				l0.2-0.1c4.3-1.7,6.6-4.8,6.6-9c0-7-5.2-11.2-14-11.2c-4.5,0-8.5,1.6-12.6,4.9l4.7,5.7c2.4-2,4.6-3.4,7.4-3.4c3.2,0,5,1.7,5,4.7
				c0,3.9-3,5.7-9.4,5.7v6.5c8.9,0,10.6,2.3,10.6,6c0,3.1-2.5,5-6.6,5c-3,0-5.9-1.3-8.7-3.9L61.2,92.2z"/>
		</g>
	</g>
	<g>
		<g>
			<g>
				<g>
					<path class="st0" d="M66.2,12c-0.1,0.9-0.8,1.7-1.8,1.7c-0.1,0-0.3,0-0.4,0l-3.2,13.1c0,0.2-0.2,0.3-0.4,0.3H39.4
						c-0.2,0-0.3-0.1-0.4-0.3l-3.2-13.1c-0.1,0-0.3,0-0.4,0c-0.9,0-1.7-0.8-1.8-1.7c-0.1-1.1,0.8-2,1.9-1.9c0.9,0,1.6,0.8,1.7,1.6
						c0,0.4-0.1,0.7-0.2,1l6.3,2.8c0.2,0.1,0.4,0,0.5-0.1l5.3-8.3c-0.6-0.3-0.9-0.9-0.9-1.6c0-0.9,0.8-1.7,1.7-1.8
						c1-0.1,1.9,0.8,1.9,1.8c0,0.7-0.4,1.3-0.9,1.6l5.3,8.3c0.1,0.2,0.3,0.2,0.5,0.1l6.3-2.8c-0.2-0.3-0.3-0.7-0.2-1
						c0.1-0.9,0.8-1.6,1.7-1.6C65.4,10.1,66.3,10.9,66.2,12z"/>
					<path d="M60.5,27.3H39.4c-0.3,0-0.5-0.2-0.6-0.5L35.7,14c-0.1,0-0.2,0-0.2,0c-1.1,0-2-0.9-2-1.9c0-0.6,0.2-1.2,0.6-1.6
						c0.4-0.4,1-0.6,1.6-0.6c1,0,1.9,0.9,2,1.9c0,0.3,0,0.6-0.1,0.9l6,2.7c0.1,0,0.1,0,0.1,0l5.1-8.1c-0.5-0.4-0.8-1-0.8-1.7
						c0-1.1,0.9-2,1.9-2c0.6,0,1.1,0.2,1.5,0.6C51.8,4.5,52,5,52,5.6c0,0.7-0.3,1.3-0.8,1.6l5.1,8.1c0,0,0.1,0.1,0.1,0l6-2.7
						c-0.1-0.3-0.2-0.6-0.1-0.9c0.1-1,0.9-1.8,2-1.9c0.6,0,1.1,0.2,1.6,0.6s0.6,1,0.6,1.6c-0.1,1.1-0.9,1.9-2,1.9
						c-0.1,0-0.2,0-0.2,0l-3.1,12.9C61,27.1,60.8,27.3,60.5,27.3z M36.1,13.4l3.2,13.4c0,0,0.1,0.1,0.1,0.1h21.1
						c0.1,0,0.1,0,0.1-0.1l3.2-13.4l0.2,0.1c0.1,0,0.2,0,0.4,0c0.8,0,1.5-0.7,1.5-1.5l0,0c0-0.4-0.1-0.9-0.4-1.2
						c-0.3-0.3-0.7-0.5-1.2-0.5c-0.8,0-1.4,0.6-1.5,1.4c0,0.3,0,0.6,0.2,0.9l0.1,0.2l-6.5,2.9c-0.3,0.1-0.6,0-0.8-0.2l-5.4-8.5
						L50.7,7c0.5-0.3,0.8-0.8,0.8-1.4c0-0.4-0.2-0.8-0.5-1.1C50.7,4.2,50.3,4,49.9,4c-0.8,0-1.5,0.7-1.5,1.5c0,0.6,0.3,1.1,0.8,1.4
						l0.2,0.1L44,15.6c-0.2,0.3-0.5,0.4-0.8,0.2l-6.5-2.9l0.1-0.2c0.2-0.3,0.2-0.6,0.2-0.9c-0.1-0.8-0.7-1.4-1.5-1.4
						c-0.5,0-0.9,0.1-1.2,0.5C34.1,11.1,34,11.6,34,12c0,0.8,0.7,1.5,1.5,1.5c0.1,0,0.2,0,0.4,0L36.1,13.4z"/>
				</g>
			</g>
		</g>
	</g>
	<g>
		<g>
			<path class="st0" d="M39.3,31.4c0,0.4,0,0.9-0.1,1.5c0.2,3.3,1.3,12.6,9.7,16.6c-1.1,0.8-2,1.9-2.5,2.8
				c-4.8-2.5-7.4-6.7-8.8-10.7c-1.3,3.8-3.7,7.8-8.1,10.7c-0.6-0.9-1.7-1.9-2.8-2.7c9.1-5.3,8.6-15.3,8.7-18.3H39.3z"/>
			<path d="M29.5,52.8l-0.1-0.2c-0.6-0.9-1.6-1.9-2.8-2.6l-0.3-0.2l0.3-0.2c8.2-4.8,8.5-13.5,8.6-17.2c0-0.3,0-0.6,0-0.9l0-0.2h4.3
				l0,0.3c0,0.4,0,0.9-0.1,1.5c0.3,4.5,1.8,12.7,9.6,16.4l0.4,0.2l-0.3,0.2c-1,0.7-2,1.8-2.5,2.7l-0.1,0.2l-0.2-0.1
				c-4-2-6.9-5.4-8.6-10.2c-1.6,4.4-4.3,7.8-7.9,10.2L29.5,52.8z M27.2,49.8c1,0.7,1.8,1.5,2.4,2.3c3.6-2.4,6.2-5.9,7.8-10.4
				l0.2-0.7l0.2,0.7c1.7,4.9,4.5,8.4,8.4,10.4c0.5-0.8,1.3-1.7,2.2-2.4c-7.7-3.9-9.2-12.1-9.5-16.7c0-0.5,0-0.9,0.1-1.3h-3.3
				c0,0.2,0,0.4,0,0.6C35.6,36.1,35.3,44.8,27.2,49.8z"/>
		</g>
		<g>
			<path class="st0" d="M69.3,39.8c-0.1,5.3,0.2,9.5,1.3,9.5c0.3,0,0.4-1.2,0.4-3c0.6,0.8,1.4,1.6,2.1,2.1c-0.2,2.8-0.8,4.2-2.8,4.2
				c-3.5,0-4.3-4.4-4.4-10.1h-4.4l3.1,1c-0.6,1.2-1.3,2.3-2.2,3.3c1.3,0.9,2.5,1.8,3.3,2.6L63.2,52c-0.7-0.8-1.8-1.7-3.1-2.6
				c-1.7,1.5-3.6,2.8-5.6,3.7c-0.5-0.7-1.7-2-2.4-2.6c1.9-0.7,3.8-1.8,5.3-3c-1.2-0.8-2.4-1.5-3.5-2.1l2.4-2.2
				c1.1,0.5,2.3,1.2,3.5,2c0.6-0.8,1.2-1.6,1.6-2.5h-7.3v-2c-0.7-0.6-2.1-1.5-2.9-2c2.3-1.7,4-4.6,4.8-7.8l3.5,0.8
				c-0.1,0.5-0.3,1-0.5,1.5h13.1v2.7H57.9c-0.1,0.2-0.2,0.5-0.4,0.7h12.6v2.6H56.9v-1.6c-0.5,0.9-1.2,1.7-1.8,2.3H69.3z"/>
			<path d="M54.5,53.4l-0.1-0.2c-0.5-0.6-1.7-1.9-2.4-2.5l-0.3-0.3l0.4-0.2c1.8-0.7,3.5-1.6,5-2.8c-1.1-0.7-2.2-1.4-3.2-1.9
				l-0.3-0.2l2.8-2.5l0.2,0.1c1,0.5,2.2,1.2,3.3,1.9c0.5-0.6,0.9-1.3,1.3-1.9h-7.1v-2.1c-0.7-0.6-2-1.5-2.8-1.9l-0.3-0.2l0.3-0.2
				c2.2-1.6,3.9-4.3,4.8-7.6l0.1-0.2l4,0.9l-0.1,0.3c-0.1,0.4-0.2,0.8-0.4,1.1h13V36H58c0,0.1-0.1,0.1-0.1,0.2h12.4v3.1H56.6v-1
				c-0.3,0.4-0.6,0.9-1,1.3h13.9l0,0.3c-0.1,7.1,0.5,8.8,0.9,9.2c0,0,0.1,0.1,0.1,0.1c0.1-0.2,0.2-0.8,0.2-2.7l0-0.7l0.4,0.5
				c0.7,0.9,1.5,1.6,2.1,2.1l0.1,0.1l0,0.1c-0.2,2.8-0.8,4.4-3,4.4c-3.8,0-4.5-4.8-4.7-10.1h-2.6l1.9,0.6l-0.1,0.3
				c-0.6,1.1-1.3,2.1-2,3.1c1.4,1,2.5,1.8,3.2,2.5l0.2,0.2l-3,2.9L63,52.2c-0.6-0.7-1.6-1.5-2.9-2.5c-1.7,1.5-3.5,2.7-5.5,3.6
				L54.5,53.4z M52.6,50.6c0.7,0.6,1.6,1.6,2,2.2c1.9-0.9,3.7-2.1,5.3-3.6l0.2-0.1l0.2,0.1c1.3,0.9,2.3,1.8,2.9,2.5l2.3-2.2
				c-0.7-0.7-1.7-1.5-3.1-2.4l-0.2-0.2l0.2-0.2c0.8-0.9,1.4-1.9,2-3l-2.7-0.9c-0.4,0.8-1,1.7-1.6,2.4l-0.1,0.2l-0.2-0.1
				c-1.1-0.7-2.3-1.3-3.3-1.9l-2,1.8c1,0.6,2.1,1.2,3.2,2l0.3,0.2l-0.3,0.2C56.1,48.8,54.4,49.8,52.6,50.6z M61.8,42.3h4.4l0,0.2
				c0.1,5.1,0.7,9.8,4.2,9.8c1.6,0,2.2-1,2.5-3.8c-0.5-0.4-1-0.9-1.6-1.6c-0.1,2.1-0.2,2.5-0.6,2.6c0,0,0,0,0,0
				c-0.2,0-0.4-0.1-0.5-0.2c-0.3-0.3-1.1-1.2-1-9.3H54.5l0.4-0.4c0.6-0.7,1.2-1.5,1.8-2.3l0.4-0.7h0l0.2-0.4
				c0.1-0.2,0.2-0.4,0.4-0.7l0.1-0.1h14.2v-2.2H58.7l0.1-0.3c0.2-0.4,0.3-0.8,0.4-1.2l-3-0.6c-0.9,3.1-2.5,5.8-4.6,7.4
				c0.8,0.5,2,1.3,2.6,1.8l0.1,0.1v1.8H61.8z M57.1,38.8h12.7v-2.1H57.1V38.8z"/>
		</g>
	</g>
</g>
</svg>
