<?xml version="1.0" encoding="utf-8"?>
<!-- Generator: Adobe Illustrator 26.5.1, SVG Export Plug-In . SVG Version: 6.00 Build 0)  -->
<svg version="1.1" id="レイヤー_1" xmlns="http://www.w3.org/2000/svg" xmlns:xlink="http://www.w3.org/1999/xlink" x="0px"
	 y="0px" viewBox="0 0 421 209.2" style="enable-background:new 0 0 421 209.2;" xml:space="preserve">
<style type="text/css">
	.st0{fill:#EEEEEE;}
	.st1{fill:none;}
	.st2{fill:#06C167;}
	.st3{fill:#B08323;}
</style>
<g id="UE-Logo-Color-White-H">
	<rect x="207" y="37.9" class="st0" width="1" height="133.4"/>
	<rect y="0" class="st1" width="418.5" height="209.2"/>
</g>
<g id="UE-Logo-Color-White-V">
	<g>
		<path class="st2" d="M272.2,40h80.9c14.5,0,26.3,11.8,26.3,26.3v80.9c0,14.5-11.8,26.3-26.3,26.3h-80.9
			c-14.5,0-26.3-11.8-26.3-26.3V66.3C245.9,51.8,257.7,40,272.2,40z"/>
		<path d="M309.9,129.5c0-3.8-3.1-6.8-6.9-6.8s-6.9,3-6.9,6.8s3.1,6.9,6.9,6.9S309.9,133.3,309.9,129.5 M315.6,118.2v22.4h-5.8v-2
			c-2,1.7-4.5,2.6-7.3,2.6c-6.8,0-12.2-5.2-12.2-11.8s5.3-11.8,12.2-11.8c2.8,0,5.3,0.9,7.3,2.6v-2L315.6,118.2L315.6,118.2z
			 M334.7,135.6h-4.3c-1.3,0-2.2-0.6-2.2-1.8v-10.5h6.5v-5.1h-6.5v-6.4h-5.8v6.4H318v5.1h4.4v11.9c0,3,2.2,5.4,6.1,5.4h6.2
			L334.7,135.6L334.7,135.6z M347.9,141.2c6.7,0,10.4-3.1,10.4-7.4c0-3.1-2.2-5.4-6.9-6.3l-4.9-1c-2.9-0.5-3.8-1-3.8-2.1
			c0-1.3,1.4-2.2,3.9-2.2c2.8,0,4.8,0.7,5.3,3.2h5.8c-0.3-4.7-3.8-7.8-10.7-7.8c-6,0-10.3,2.4-10.3,7.2c0,3.3,2.3,5.4,7.4,6.4
			l5.5,1.2c2.2,0.4,2.8,1,2.8,1.9c0,1.4-1.6,2.3-4.3,2.3c-3.3,0-5.2-0.7-6-3.2h-5.8C337.1,138.1,340.7,141.2,347.9,141.2
			 M267.1,110.3h21.7v5.2h-15.9v7.4h15.4v5h-15.4v7.5h15.9v5.2h-21.7C267.1,140.7,267.1,110.3,267.1,110.3z"/>
		<path d="M357.8,84v-4.1h-1.5c-2.5,0-4.3,1.1-5.4,2.9v-2.7h-4.4v22.1h4.5V89.6c0-3.4,2.1-5.6,5-5.6L357.8,84L357.8,84z M325.7,89.1
			c0.8-3.4,3.6-5.6,6.9-5.6s6.1,2.3,6.9,5.6H325.7z M332.7,79.7c-6.6,0-11.6,5.2-11.6,11.5c0,6.6,5.2,11.5,12,11.5
			c4.1,0,7.5-1.8,9.7-4.7l-3.2-2.3c-1.7,2.2-3.9,3.2-6.5,3.2c-3.8,0-6.9-2.7-7.5-6.3h18.3v-1.4C343.9,84.6,339.1,79.7,332.7,79.7
			 M307.1,98.9c-4.3,0-7.8-3.4-7.8-7.7s3.5-7.7,7.8-7.7s7.7,3.4,7.7,7.7S311.4,98.9,307.1,98.9 M295,102.2h4.4v-2.8
			c2,2,4.9,3.3,8,3.3c6.6,0,11.8-5.2,11.8-11.5s-5.2-11.6-11.8-11.6c-3.1,0-6,1.3-8,3.3V71.9H295L295,102.2L295,102.2z M279.3,98.7
			c4.3,0,7.6-3.2,7.6-8.1V71.8h4.6v30.4h-4.6v-2.8c-2.1,2.1-5,3.3-8.2,3.3c-6.6,0-11.7-4.7-11.7-11.9v-19h4.6v18.7
			C271.7,95.5,275,98.7,279.3,98.7"/>
	</g>
</g>
<g>
	<g id="_レイヤー_2-2_00000068664172323917453760000000487576122605450142_">
		<path class="st3" d="M146,41.6h-8.3c0,0-10.2,7.2-13.6,13.6c0.1,6.4,0.1,11.8,0.1,11.8s-5-2.5-5-5.1v-8.5c0,0,4.2-10.6,7.9-11.9
			c1-0.5,0.9-1.6-1.2-1.6h-18.4c0,0-6.3,6.7-7,9.4v15.8c-1.3,1.6-2.9,1.7-5,0.1L94.6,62c-1.5-4.7-1.1-9.1,0.8-13.5v-6.8l-5.1,0
			c0,0-9.2,1.3-11.8,5.1v18.6c-3.6,0-7.5-7.8-7-18.6c-3.4-0.2-5.2,0-5.2,0s-23.6,5.8-28.4,22.1c0.1,0.8,0,11.7,0,11.7
			s7.2,9,23.7,13.6c14.5,3.3,27.2,3.4,27.2,3.4h25c0,0,15-1.2,20.3-1.8c12.8-0.8,32.9-8.2,38.9-20.2V63.8
			C168.4,53.5,154.7,44.2,146,41.6L146,41.6z M58.2,62h-6.6v-1.8h6.6V62z M87,60.2h-1.8v-0.9h-1.7v-1.4h1.7v-1H87
			C87,56.9,87,60.2,87,60.2z M112.3,45.1h1.6v3.3h-1.6C112.3,48.5,112.3,45.1,112.3,45.1z M108.9,55.2h-3.4v-1.7h3.4V55.2z
			 M114,63.6h-3.4v-3.4h3.4V63.6z M132.6,56.9v-3.4h1.7v3.4H132.6z M139.3,63.6h-1.7v1.6h-1.7v-1.6h-1.7v-1.7h5V63.6z M141,50.1
			v-1.7h5.1v3.4h-3.4v-1.7H141z M149.5,60.2h-1.7v1.7h-1.7v-3.4h3.4C149.5,58.6,149.5,60.2,149.5,60.2z M159.6,56.9h-3.3v-1.8h3.3
			V56.9z"/>
		<path class="st3" d="M37.9,92.4h-6.8l0,8.4h1.6v25.4h-1.5v10h18.5l3.4-3.4V99.3C51.5,95.9,46.1,93.7,37.9,92.4L37.9,92.4z
			 M48,124.5l-1.7,1.7H38v-6.7h10.1L48,124.5L48,124.5z M48.1,109.3l-1.7,1.7h-8.5v-6.7h10.1V109.3z"/>
		<path class="st3" d="M73.4,111l0.1-3.4h1.4v-4.9l-3.7-3.5h-7.9v6.8H65l0,3.2l-5,15.4l-3.1,3.3v8.4h9.9v-10.2h5v10.2h8.5v-6.7
			L73.4,111L73.4,111z M66.6,121.1l1.7-6.8H70c0,0,1.8,6.6,1.7,6.8C71.6,121.3,66.6,121.1,66.6,121.1z"/>
		<polygon class="st3" points="85.2,109.3 85.2,131.3 83.5,131.3 83.5,136.3 91.9,136.3 91.9,125.2 95.3,122.8 97.1,126.3 
			97.1,136.2 107.2,136.2 107.2,133.1 100.4,121.1 98.8,121.1 98.8,116.1 100.4,116.1 105.5,110.9 105.5,102.5 95.4,102.5 
			95.4,105.8 97,105.9 97.1,108.3 92,116 90.3,116 90.3,110.9 92,110.9 92,102.5 83.5,102.5 83.5,109.3 		"/>
		<polygon class="st3" points="108.9,102.5 124.1,102.5 124.1,100.7 132.5,100.7 132.5,114.3 125.9,114.3 125.8,109.2 117.4,111 
			117.4,116.1 125.9,116.1 125.9,124.4 117.4,124.4 117.4,127.7 125.9,127.7 125.9,122.8 132.5,122.8 132.5,136.3 108.9,136.3 
			108.9,132.8 110.6,132.8 110.6,106 108.9,106 		"/>
		<path class="st3" d="M157.9,99.1l-1.7-1.6l-21.9,3.2v1.8l1.6,1.7l0.1,8.4l1.7,0l-0.1,10.2l-1.7,0.1v13.4h8.5l-0.1-5.1l-1.7,0
			l0.1-8.4l5.1,0l0.1,13.5h10v-6.5l-4.7-6.3l4.7-4.1L157.9,99.1L157.9,99.1z M152.9,111.1l-1.8,3.1h-8.4v-6.6h10.1V111.1z"/>
		<polygon class="st3" points="176.6,136.3 168.1,136.3 168.1,131.2 169.8,131.2 169.8,116.3 161.3,104.2 161.3,97.6 164.8,94 
			171.3,94 171.3,99 169.4,99.2 169.3,105.9 171.6,109.2 173.1,109.2 174.8,106 174.8,92.3 185,92.3 185,98.1 176.5,112.7 		"/>
		<rect x="17.6" y="144.8" class="st3" width="174.1" height="1.7"/>
		<polygon class="st3" points="29.5,155 36.1,155 36.1,163.4 39.6,161.5 39.6,155.5 46.2,155 46.2,161.4 41.2,166.7 41.3,173.5 
			34.5,173.5 34.6,166.7 29.5,161.6 		"/>
		<path class="st3" d="M61.7,168.5l-3.4-8.5l-0.2-5.1h-6.7l-0.1,0.2v4.9l-3.8,9l-1.2,2.8l-1.8,0.1v1.6h6.8l0-1.7l1.8-1.6l5-0.1
			l-0.1,3.3h5.1v-5H61.7L61.7,168.5z M56.4,166.7h-2.3v-3.3h2.3V166.7z"/>
		<polygon class="st3" points="65,154.9 65,173.5 70.1,173.5 70.1,166.7 73.4,170.1 73.4,173.5 76.8,173.5 76.8,170.1 80.2,166.7 
			80.2,170.1 78.5,170.1 78.5,173.5 85.2,173.5 85.2,154.9 78.5,154.9 77.7,159.9 76.7,163.4 73.4,163.4 72.5,160 71.7,154.9 		"/>
		<path class="st3" d="M102.2,170.1l-5.1-15.2H92l-5,16.9h-1.8v1.7H92v-3.4l5,0v3.4h6.8v-3.4L102.2,170.1L102.2,170.1z M95.8,166.7
			h-2.1v-3.4h2.2L95.8,166.7z"/>
		<polygon class="st3" points="115.7,161.7 120.7,161.7 120.7,156.6 117.4,154.9 108.9,154.9 104.4,159.5 104.4,169.1 108.9,173.5 
			122.4,173.5 122.5,163.4 115.7,163.4 115.7,165.1 117.4,165.1 117.4,168.4 110.6,168.4 110.6,161.7 112.3,160 115.7,160 		"/>
		<polygon class="st3" points="124.1,154.9 124.1,171.2 126.6,173.5 136.8,173.5 139.3,171 139.3,154.9 134.3,154.9 134.3,168.4 
			132.5,169.9 130.9,169.9 129.2,168.4 129.2,154.9 		"/>
		<polygon class="st3" points="156.2,161.7 156.2,157.5 153.7,154.9 147,154.9 141.3,159.3 141.3,170.1 146.1,173.5 156.2,173.5 
			156.2,166.7 154.6,166.8 154.6,168.4 148.8,168.4 147.8,167.6 147.8,161.7 149.5,160 152.8,160 152.9,161.7 		"/>
		<path class="st3" d="M159.6,158.3v13.5h-1.7v1.7h6.8v-6.8h6.8v5.1h-1.7v1.7h6.8v-18.6h-5.1l0,6.8c0,0-6.8,0-6.8,0s0-6.8,0-6.8H158
			v3.4L159.6,158.3L159.6,158.3z"/>
		<polygon class="st3" points="178.2,154.9 178.2,173.5 185,173.5 185,171.8 183.3,171.8 183.3,154.9 		"/>
	</g>
</g>
</svg>
